<?xml version="1.0" encoding="utf-8" standalone="no"?>
<!DOCTYPE svg PUBLIC "-//W3C//DTD SVG 1.1//EN"
  "http://www.w3.org/Graphics/SVG/1.1/DTD/svg11.dtd">
<svg height="672.623938pt" version="1.1" viewBox="0 0 1100.16 672.623938" width="1100.16pt" xmlns="http://www.w3.org/2000/svg" xmlns:xlink="http://www.w3.org/1999/xlink">
 <metadata>
  <rdf:RDF xmlns:cc="http://creativecommons.org/ns#" xmlns:dc="http://purl.org/dc/elements/1.1/" xmlns:rdf="http://www.w3.org/1999/02/22-rdf-syntax-ns#">
   <cc:Work>
    <dc:type rdf:resource="http://purl.org/dc/dcmitype/StillImage"/>
    <dc:date>2021-06-11T14:19:14.328824</dc:date>
    <dc:format>image/svg+xml</dc:format>
    <dc:creator>
     <cc:Agent>
      <dc:title>Matplotlib v3.4.1, https://matplotlib.org/</dc:title>
     </cc:Agent>
    </dc:creator>
   </cc:Work>
  </rdf:RDF>
 </metadata>
 <defs>
  <style type="text/css">*{stroke-linecap:butt;stroke-linejoin:round;}</style>
 </defs>
 <g id="figure_1">
  <g id="patch_1">
   <path d="M 0 672.623938 
L 1100.16 672.623938 
L 1100.16 0 
L 0 0 
z
" style="fill:#ffffff;"/>
  </g>
  <g id="axes_1">
   <g id="patch_2">
    <path d="M 14.4 632.961437 
L 1085.76 632.961437 
L 1085.76 45.873438 
L 14.4 45.873438 
z
" style="fill:#ffffff;"/>
   </g>
   <g id="PathCollection_1">
    <defs>
     <path d="M 0 7.905694 
C 2.096615 7.905694 4.10764 7.0727 5.59017 5.59017 
C 7.0727 4.10764 7.905694 2.096615 7.905694 0 
C 7.905694 -2.096615 7.0727 -4.10764 5.59017 -5.59017 
C 4.10764 -7.0727 2.096615 -7.905694 0 -7.905694 
C -2.096615 -7.905694 -4.10764 -7.0727 -5.59017 -5.59017 
C -7.0727 -4.10764 -7.905694 -2.096615 -7.905694 0 
C -7.905694 2.096615 -7.0727 4.10764 -5.59017 5.59017 
C -4.10764 7.0727 -2.096615 7.905694 0 7.905694 
z
" id="m83dcd02679" style="stroke:#000000;"/>
    </defs>
    <g clip-path="url(#p3926f18de6)">
     <use style="fill:#525a61;stroke:#000000;" x="978.624" xlink:href="#m83dcd02679" y="616.653437"/>
     <use style="fill:#525a61;stroke:#000000;" x="764.352" xlink:href="#m83dcd02679" y="616.653437"/>
     <use style="fill:#525a61;stroke:#000000;" x="764.352" xlink:href="#m83dcd02679" y="616.653437"/>
     <use style="fill:#525a61;stroke:#000000;" x="528.6528" xlink:href="#m83dcd02679" y="616.653437"/>
     <use style="fill:#525a61;stroke:#000000;" x="550.08" xlink:href="#m83dcd02679" y="616.653437"/>
     <use style="fill:#525a61;stroke:#000000;" x="571.5072" xlink:href="#m83dcd02679" y="597.083837"/>
     <use style="fill:#525a61;stroke:#000000;" x="314.3808" xlink:href="#m83dcd02679" y="616.653437"/>
     <use style="fill:#525a61;stroke:#000000;" x="335.808" xlink:href="#m83dcd02679" y="616.653437"/>
     <use style="fill:#525a61;stroke:#000000;" x="357.2352" xlink:href="#m83dcd02679" y="597.083837"/>
     <use style="fill:#525a61;stroke:#000000;" x="314.3808" xlink:href="#m83dcd02679" y="597.083837"/>
     <use style="fill:#525a61;stroke:#000000;" x="335.808" xlink:href="#m83dcd02679" y="597.083837"/>
     <use style="fill:#525a61;stroke:#000000;" x="357.2352" xlink:href="#m83dcd02679" y="577.514238"/>
     <use style="fill:#525a61;stroke:#000000;" x="314.3808" xlink:href="#m83dcd02679" y="577.514238"/>
     <use style="fill:#525a61;stroke:#000000;" x="335.808" xlink:href="#m83dcd02679" y="577.514238"/>
     <use style="fill:#525a61;stroke:#000000;" x="357.2352" xlink:href="#m83dcd02679" y="557.944637"/>
     <use style="fill:#525a61;stroke:#000000;" x="314.3808" xlink:href="#m83dcd02679" y="557.944637"/>
     <use style="fill:#525a61;stroke:#000000;" x="335.808" xlink:href="#m83dcd02679" y="557.944637"/>
     <use style="fill:#525a61;stroke:#000000;" x="357.2352" xlink:href="#m83dcd02679" y="538.375037"/>
     <use style="fill:#525a61;stroke:#000000;" x="314.3808" xlink:href="#m83dcd02679" y="538.375037"/>
     <use style="fill:#525a61;stroke:#000000;" x="335.808" xlink:href="#m83dcd02679" y="538.375037"/>
     <use style="fill:#525a61;stroke:#000000;" x="357.2352" xlink:href="#m83dcd02679" y="518.805438"/>
     <use style="fill:#525a61;stroke:#000000;" x="314.3808" xlink:href="#m83dcd02679" y="518.805438"/>
     <use style="fill:#525a61;stroke:#000000;" x="335.808" xlink:href="#m83dcd02679" y="518.805438"/>
     <use style="fill:#525a61;stroke:#000000;" x="357.2352" xlink:href="#m83dcd02679" y="499.235838"/>
     <use style="fill:#525a61;stroke:#000000;" x="314.3808" xlink:href="#m83dcd02679" y="499.235838"/>
     <use style="fill:#525a61;stroke:#000000;" x="335.808" xlink:href="#m83dcd02679" y="499.235838"/>
     <use style="fill:#525a61;stroke:#000000;" x="100.1088" xlink:href="#m83dcd02679" y="616.653437"/>
     <use style="fill:#525a61;stroke:#000000;" x="121.536" xlink:href="#m83dcd02679" y="616.653437"/>
     <use style="fill:#525a61;stroke:#000000;" x="142.9632" xlink:href="#m83dcd02679" y="597.083837"/>
     <use style="fill:#525a61;stroke:#000000;" x="100.1088" xlink:href="#m83dcd02679" y="597.083837"/>
     <use style="fill:#525a61;stroke:#000000;" x="121.536" xlink:href="#m83dcd02679" y="597.083837"/>
     <use style="fill:#525a61;stroke:#000000;" x="142.9632" xlink:href="#m83dcd02679" y="577.514238"/>
     <use style="fill:#525a61;stroke:#000000;" x="100.1088" xlink:href="#m83dcd02679" y="577.514238"/>
     <use style="fill:#525a61;stroke:#000000;" x="121.536" xlink:href="#m83dcd02679" y="577.514238"/>
     <use style="fill:#525a61;stroke:#000000;" x="142.9632" xlink:href="#m83dcd02679" y="557.944637"/>
     <use style="fill:#525a61;stroke:#000000;" x="100.1088" xlink:href="#m83dcd02679" y="557.944637"/>
     <use style="fill:#525a61;stroke:#000000;" x="121.536" xlink:href="#m83dcd02679" y="557.944637"/>
     <use style="fill:#525a61;stroke:#000000;" x="142.9632" xlink:href="#m83dcd02679" y="538.375037"/>
     <use style="fill:#525a61;stroke:#000000;" x="100.1088" xlink:href="#m83dcd02679" y="538.375037"/>
     <use style="fill:#525a61;stroke:#000000;" x="121.536" xlink:href="#m83dcd02679" y="538.375037"/>
     <use style="fill:#525a61;stroke:#000000;" x="142.9632" xlink:href="#m83dcd02679" y="518.805438"/>
     <use style="fill:#525a61;stroke:#000000;" x="100.1088" xlink:href="#m83dcd02679" y="518.805438"/>
     <use style="fill:#525a61;stroke:#000000;" x="121.536" xlink:href="#m83dcd02679" y="518.805438"/>
     <use style="fill:#525a61;stroke:#000000;" x="142.9632" xlink:href="#m83dcd02679" y="499.235838"/>
     <use style="fill:#525a61;stroke:#000000;" x="100.1088" xlink:href="#m83dcd02679" y="499.235838"/>
     <use style="fill:#525a61;stroke:#000000;" x="121.536" xlink:href="#m83dcd02679" y="499.235838"/>
     <use style="fill:#525a61;stroke:#000000;" x="142.9632" xlink:href="#m83dcd02679" y="479.666238"/>
     <use style="fill:#525a61;stroke:#000000;" x="100.1088" xlink:href="#m83dcd02679" y="479.666238"/>
     <use style="fill:#525a61;stroke:#000000;" x="121.536" xlink:href="#m83dcd02679" y="479.666238"/>
     <use style="fill:#525a61;stroke:#000000;" x="142.9632" xlink:href="#m83dcd02679" y="460.096638"/>
     <use style="fill:#525a61;stroke:#000000;" x="100.1088" xlink:href="#m83dcd02679" y="460.096638"/>
     <use style="fill:#525a61;stroke:#000000;" x="121.536" xlink:href="#m83dcd02679" y="460.096638"/>
     <use style="fill:#525a61;stroke:#000000;" x="142.9632" xlink:href="#m83dcd02679" y="440.527038"/>
     <use style="fill:#525a61;stroke:#000000;" x="100.1088" xlink:href="#m83dcd02679" y="440.527038"/>
     <use style="fill:#525a61;stroke:#000000;" x="121.536" xlink:href="#m83dcd02679" y="440.527038"/>
     <use style="fill:#525a61;stroke:#000000;" x="142.9632" xlink:href="#m83dcd02679" y="420.957437"/>
     <use style="fill:#525a61;stroke:#000000;" x="100.1088" xlink:href="#m83dcd02679" y="420.957437"/>
     <use style="fill:#525a61;stroke:#000000;" x="121.536" xlink:href="#m83dcd02679" y="420.957437"/>
     <use style="fill:#525a61;stroke:#000000;" x="142.9632" xlink:href="#m83dcd02679" y="401.387837"/>
     <use style="fill:#525a61;stroke:#000000;" x="100.1088" xlink:href="#m83dcd02679" y="401.387837"/>
     <use style="fill:#525a61;stroke:#000000;" x="121.536" xlink:href="#m83dcd02679" y="401.387837"/>
     <use style="fill:#525a61;stroke:#000000;" x="142.9632" xlink:href="#m83dcd02679" y="381.818237"/>
     <use style="fill:#525a61;stroke:#000000;" x="100.1088" xlink:href="#m83dcd02679" y="381.818237"/>
     <use style="fill:#525a61;stroke:#000000;" x="121.536" xlink:href="#m83dcd02679" y="381.818237"/>
     <use style="fill:#525a61;stroke:#000000;" x="142.9632" xlink:href="#m83dcd02679" y="362.248637"/>
     <use style="fill:#525a61;stroke:#000000;" x="100.1088" xlink:href="#m83dcd02679" y="362.248637"/>
     <use style="fill:#525a61;stroke:#000000;" x="121.536" xlink:href="#m83dcd02679" y="362.248637"/>
     <use style="fill:#525a61;stroke:#000000;" x="142.9632" xlink:href="#m83dcd02679" y="342.679037"/>
     <use style="fill:#525a61;stroke:#000000;" x="100.1088" xlink:href="#m83dcd02679" y="342.679037"/>
     <use style="fill:#525a61;stroke:#000000;" x="121.536" xlink:href="#m83dcd02679" y="342.679037"/>
     <use style="fill:#525a61;stroke:#000000;" x="142.9632" xlink:href="#m83dcd02679" y="323.109437"/>
     <use style="fill:#525a61;stroke:#000000;" x="100.1088" xlink:href="#m83dcd02679" y="323.109437"/>
     <use style="fill:#525a61;stroke:#000000;" x="121.536" xlink:href="#m83dcd02679" y="323.109437"/>
     <use style="fill:#525a61;stroke:#000000;" x="142.9632" xlink:href="#m83dcd02679" y="303.539837"/>
     <use style="fill:#525a61;stroke:#000000;" x="100.1088" xlink:href="#m83dcd02679" y="303.539837"/>
     <use style="fill:#525a61;stroke:#000000;" x="121.536" xlink:href="#m83dcd02679" y="303.539837"/>
     <use style="fill:#525a61;stroke:#000000;" x="142.9632" xlink:href="#m83dcd02679" y="283.970237"/>
     <use style="fill:#525a61;stroke:#000000;" x="100.1088" xlink:href="#m83dcd02679" y="283.970237"/>
     <use style="fill:#525a61;stroke:#000000;" x="121.536" xlink:href="#m83dcd02679" y="283.970237"/>
     <use style="fill:#525a61;stroke:#000000;" x="142.9632" xlink:href="#m83dcd02679" y="264.400637"/>
     <use style="fill:#525a61;stroke:#000000;" x="100.1088" xlink:href="#m83dcd02679" y="264.400637"/>
     <use style="fill:#525a61;stroke:#000000;" x="121.536" xlink:href="#m83dcd02679" y="264.400637"/>
     <use style="fill:#525a61;stroke:#000000;" x="142.9632" xlink:href="#m83dcd02679" y="244.831037"/>
     <use style="fill:#525a61;stroke:#000000;" x="100.1088" xlink:href="#m83dcd02679" y="244.831037"/>
     <use style="fill:#525a61;stroke:#000000;" x="121.536" xlink:href="#m83dcd02679" y="244.831037"/>
     <use style="fill:#525a61;stroke:#000000;" x="142.9632" xlink:href="#m83dcd02679" y="225.261437"/>
     <use style="fill:#525a61;stroke:#000000;" x="100.1088" xlink:href="#m83dcd02679" y="225.261437"/>
     <use style="fill:#525a61;stroke:#000000;" x="121.536" xlink:href="#m83dcd02679" y="225.261437"/>
     <use style="fill:#525a61;stroke:#000000;" x="142.9632" xlink:href="#m83dcd02679" y="205.691837"/>
     <use style="fill:#525a61;stroke:#000000;" x="100.1088" xlink:href="#m83dcd02679" y="205.691837"/>
     <use style="fill:#525a61;stroke:#000000;" x="121.536" xlink:href="#m83dcd02679" y="205.691837"/>
     <use style="fill:#525a61;stroke:#000000;" x="142.9632" xlink:href="#m83dcd02679" y="186.122237"/>
     <use style="fill:#525a61;stroke:#000000;" x="100.1088" xlink:href="#m83dcd02679" y="186.122237"/>
     <use style="fill:#525a61;stroke:#000000;" x="121.536" xlink:href="#m83dcd02679" y="186.122237"/>
     <use style="fill:#525a61;stroke:#000000;" x="142.9632" xlink:href="#m83dcd02679" y="166.552637"/>
     <use style="fill:#525a61;stroke:#000000;" x="100.1088" xlink:href="#m83dcd02679" y="166.552637"/>
     <use style="fill:#525a61;stroke:#000000;" x="121.536" xlink:href="#m83dcd02679" y="166.552637"/>
     <use style="fill:#525a61;stroke:#000000;" x="142.9632" xlink:href="#m83dcd02679" y="146.983037"/>
     <use style="fill:#525a61;stroke:#000000;" x="100.1088" xlink:href="#m83dcd02679" y="146.983037"/>
     <use style="fill:#525a61;stroke:#000000;" x="121.536" xlink:href="#m83dcd02679" y="146.983037"/>
     <use style="fill:#525a61;stroke:#000000;" x="142.9632" xlink:href="#m83dcd02679" y="127.413437"/>
     <use style="fill:#525a61;stroke:#000000;" x="100.1088" xlink:href="#m83dcd02679" y="127.413437"/>
     <use style="fill:#525a61;stroke:#000000;" x="121.536" xlink:href="#m83dcd02679" y="127.413437"/>
     <use style="fill:#525a61;stroke:#000000;" x="142.9632" xlink:href="#m83dcd02679" y="107.843837"/>
     <use style="fill:#525a61;stroke:#000000;" x="100.1088" xlink:href="#m83dcd02679" y="107.843837"/>
     <use style="fill:#525a61;stroke:#000000;" x="121.536" xlink:href="#m83dcd02679" y="107.843837"/>
     <use style="fill:#525a61;stroke:#000000;" x="142.9632" xlink:href="#m83dcd02679" y="88.274237"/>
     <use style="fill:#525a61;stroke:#000000;" x="100.1088" xlink:href="#m83dcd02679" y="88.274237"/>
     <use style="fill:#525a61;stroke:#000000;" x="121.536" xlink:href="#m83dcd02679" y="88.274237"/>
    </g>
   </g>
   <g id="matplotlib.axis_1">
    <g id="xtick_1">
     <g id="text_1">
      <!-- 1 -->
      <g transform="translate(115.975063 654.277063)scale(0.2 -0.2)">
       <defs>
        <path d="M 2519 0 
L 1641 0 
L 1641 3309 
Q 1159 2859 506 2644 
L 506 3441 
Q 850 3553 1253 3867 
Q 1656 4181 1806 4600 
L 2519 4600 
L 2519 0 
z
" id="Arial-BoldMT-31" transform="scale(0.015625)"/>
       </defs>
       <use xlink:href="#Arial-BoldMT-31"/>
      </g>
     </g>
    </g>
    <g id="xtick_2">
     <g id="text_2">
      <!-- 2 -->
      <g transform="translate(330.247062 654.277063)scale(0.2 -0.2)">
       <defs>
        <path d="M 3238 816 
L 3238 0 
L 159 0 
Q 209 463 459 877 
Q 709 1291 1447 1975 
Q 2041 2528 2175 2725 
Q 2356 2997 2356 3263 
Q 2356 3556 2198 3714 
Q 2041 3872 1763 3872 
Q 1488 3872 1325 3706 
Q 1163 3541 1138 3156 
L 263 3244 
Q 341 3969 753 4284 
Q 1166 4600 1784 4600 
Q 2463 4600 2850 4234 
Q 3238 3869 3238 3325 
Q 3238 3016 3127 2736 
Q 3016 2456 2775 2150 
Q 2616 1947 2200 1565 
Q 1784 1184 1673 1059 
Q 1563 934 1494 816 
L 3238 816 
z
" id="Arial-BoldMT-32" transform="scale(0.015625)"/>
       </defs>
       <use xlink:href="#Arial-BoldMT-32"/>
      </g>
     </g>
    </g>
    <g id="xtick_3">
     <g id="text_3">
      <!-- 3 -->
      <g transform="translate(544.519063 654.277063)scale(0.2 -0.2)">
       <defs>
        <path d="M 241 1216 
L 1091 1319 
Q 1131 994 1309 822 
Q 1488 650 1741 650 
Q 2013 650 2198 856 
Q 2384 1063 2384 1413 
Q 2384 1744 2206 1937 
Q 2028 2131 1772 2131 
Q 1603 2131 1369 2066 
L 1466 2781 
Q 1822 2772 2009 2936 
Q 2197 3100 2197 3372 
Q 2197 3603 2059 3740 
Q 1922 3878 1694 3878 
Q 1469 3878 1309 3722 
Q 1150 3566 1116 3266 
L 306 3403 
Q 391 3819 561 4067 
Q 731 4316 1036 4458 
Q 1341 4600 1719 4600 
Q 2366 4600 2756 4188 
Q 3078 3850 3078 3425 
Q 3078 2822 2419 2463 
Q 2813 2378 3048 2084 
Q 3284 1791 3284 1375 
Q 3284 772 2843 347 
Q 2403 -78 1747 -78 
Q 1125 -78 715 280 
Q 306 638 241 1216 
z
" id="Arial-BoldMT-33" transform="scale(0.015625)"/>
       </defs>
       <use xlink:href="#Arial-BoldMT-33"/>
      </g>
     </g>
    </g>
    <g id="xtick_4">
     <g id="text_4">
      <!-- 4 -->
      <g transform="translate(758.791062 654.277063)scale(0.2 -0.2)">
       <defs>
        <path d="M 1994 0 
L 1994 922 
L 119 922 
L 119 1691 
L 2106 4600 
L 2844 4600 
L 2844 1694 
L 3413 1694 
L 3413 922 
L 2844 922 
L 2844 0 
L 1994 0 
z
M 1994 1694 
L 1994 3259 
L 941 1694 
L 1994 1694 
z
" id="Arial-BoldMT-34" transform="scale(0.015625)"/>
       </defs>
       <use xlink:href="#Arial-BoldMT-34"/>
      </g>
     </g>
    </g>
    <g id="xtick_5">
     <g id="text_5">
      <!-- 9 -->
      <g transform="translate(973.063062 654.277063)scale(0.2 -0.2)">
       <defs>
        <path d="M 291 1059 
L 1141 1153 
Q 1172 894 1303 769 
Q 1434 644 1650 644 
Q 1922 644 2112 894 
Q 2303 1144 2356 1931 
Q 2025 1547 1528 1547 
Q 988 1547 595 1964 
Q 203 2381 203 3050 
Q 203 3747 617 4173 
Q 1031 4600 1672 4600 
Q 2369 4600 2816 4061 
Q 3263 3522 3263 2288 
Q 3263 1031 2797 475 
Q 2331 -81 1584 -81 
Q 1047 -81 715 205 
Q 384 491 291 1059 
z
M 2278 2978 
Q 2278 3403 2083 3637 
Q 1888 3872 1631 3872 
Q 1388 3872 1227 3680 
Q 1066 3488 1066 3050 
Q 1066 2606 1241 2398 
Q 1416 2191 1678 2191 
Q 1931 2191 2104 2391 
Q 2278 2591 2278 2978 
z
" id="Arial-BoldMT-39" transform="scale(0.015625)"/>
       </defs>
       <use xlink:href="#Arial-BoldMT-39"/>
      </g>
     </g>
    </g>
   </g>
   <g id="matplotlib.axis_2">
    <g id="ytick_1"/>
    <g id="ytick_2"/>
    <g id="ytick_3"/>
    <g id="ytick_4"/>
    <g id="ytick_5"/>
    <g id="ytick_6"/>
    <g id="ytick_7"/>
    <g id="ytick_8"/>
   </g>
   <g id="patch_3">
    <path d="M 14.4 632.961437 
L 1085.76 632.961437 
" style="fill:none;stroke:#000000;stroke-linecap:square;stroke-linejoin:miter;stroke-width:1.5;"/>
   </g>
   <g id="text_6">
    <!-- Number of authors who have... -->
    <g transform="translate(14.4 35.873438)scale(0.3 -0.3)">
     <defs>
      <path d="M 475 0 
L 475 4581 
L 1375 4581 
L 3250 1522 
L 3250 4581 
L 4109 4581 
L 4109 0 
L 3181 0 
L 1334 2988 
L 1334 0 
L 475 0 
z
" id="Arial-BoldMT-4e" transform="scale(0.015625)"/>
      <path d="M 2644 0 
L 2644 497 
Q 2463 231 2167 78 
Q 1872 -75 1544 -75 
Q 1209 -75 943 72 
Q 678 219 559 484 
Q 441 750 441 1219 
L 441 3319 
L 1319 3319 
L 1319 1794 
Q 1319 1094 1367 936 
Q 1416 778 1544 686 
Q 1672 594 1869 594 
Q 2094 594 2272 717 
Q 2450 841 2515 1023 
Q 2581 1206 2581 1919 
L 2581 3319 
L 3459 3319 
L 3459 0 
L 2644 0 
z
" id="Arial-BoldMT-75" transform="scale(0.015625)"/>
      <path d="M 394 3319 
L 1203 3319 
L 1203 2866 
Q 1638 3394 2238 3394 
Q 2556 3394 2790 3262 
Q 3025 3131 3175 2866 
Q 3394 3131 3647 3262 
Q 3900 3394 4188 3394 
Q 4553 3394 4806 3245 
Q 5059 3097 5184 2809 
Q 5275 2597 5275 2122 
L 5275 0 
L 4397 0 
L 4397 1897 
Q 4397 2391 4306 2534 
Q 4184 2722 3931 2722 
Q 3747 2722 3584 2609 
Q 3422 2497 3350 2280 
Q 3278 2063 3278 1594 
L 3278 0 
L 2400 0 
L 2400 1819 
Q 2400 2303 2353 2443 
Q 2306 2584 2207 2653 
Q 2109 2722 1941 2722 
Q 1738 2722 1575 2612 
Q 1413 2503 1342 2297 
Q 1272 2091 1272 1613 
L 1272 0 
L 394 0 
L 394 3319 
z
" id="Arial-BoldMT-6d" transform="scale(0.015625)"/>
      <path d="M 422 0 
L 422 4581 
L 1300 4581 
L 1300 2931 
Q 1706 3394 2263 3394 
Q 2869 3394 3266 2955 
Q 3663 2516 3663 1694 
Q 3663 844 3258 384 
Q 2853 -75 2275 -75 
Q 1991 -75 1714 67 
Q 1438 209 1238 488 
L 1238 0 
L 422 0 
z
M 1294 1731 
Q 1294 1216 1456 969 
Q 1684 619 2063 619 
Q 2353 619 2558 867 
Q 2763 1116 2763 1650 
Q 2763 2219 2556 2470 
Q 2350 2722 2028 2722 
Q 1713 2722 1503 2476 
Q 1294 2231 1294 1731 
z
" id="Arial-BoldMT-62" transform="scale(0.015625)"/>
      <path d="M 2381 1056 
L 3256 909 
Q 3088 428 2723 176 
Q 2359 -75 1813 -75 
Q 947 -75 531 491 
Q 203 944 203 1634 
Q 203 2459 634 2926 
Q 1066 3394 1725 3394 
Q 2466 3394 2894 2905 
Q 3322 2416 3303 1406 
L 1103 1406 
Q 1113 1016 1316 798 
Q 1519 581 1822 581 
Q 2028 581 2168 693 
Q 2309 806 2381 1056 
z
M 2431 1944 
Q 2422 2325 2234 2523 
Q 2047 2722 1778 2722 
Q 1491 2722 1303 2513 
Q 1116 2303 1119 1944 
L 2431 1944 
z
" id="Arial-BoldMT-65" transform="scale(0.015625)"/>
      <path d="M 1300 0 
L 422 0 
L 422 3319 
L 1238 3319 
L 1238 2847 
Q 1447 3181 1614 3287 
Q 1781 3394 1994 3394 
Q 2294 3394 2572 3228 
L 2300 2463 
Q 2078 2606 1888 2606 
Q 1703 2606 1575 2504 
Q 1447 2403 1373 2137 
Q 1300 1872 1300 1025 
L 1300 0 
z
" id="Arial-BoldMT-72" transform="scale(0.015625)"/>
      <path id="Arial-BoldMT-20" transform="scale(0.015625)"/>
      <path d="M 256 1706 
Q 256 2144 472 2553 
Q 688 2963 1083 3178 
Q 1478 3394 1966 3394 
Q 2719 3394 3200 2905 
Q 3681 2416 3681 1669 
Q 3681 916 3195 420 
Q 2709 -75 1972 -75 
Q 1516 -75 1102 131 
Q 688 338 472 736 
Q 256 1134 256 1706 
z
M 1156 1659 
Q 1156 1166 1390 903 
Q 1625 641 1969 641 
Q 2313 641 2545 903 
Q 2778 1166 2778 1666 
Q 2778 2153 2545 2415 
Q 2313 2678 1969 2678 
Q 1625 2678 1390 2415 
Q 1156 2153 1156 1659 
z
" id="Arial-BoldMT-6f" transform="scale(0.015625)"/>
      <path d="M 75 3319 
L 563 3319 
L 563 3569 
Q 563 3988 652 4194 
Q 741 4400 980 4529 
Q 1219 4659 1584 4659 
Q 1959 4659 2319 4547 
L 2200 3934 
Q 1991 3984 1797 3984 
Q 1606 3984 1523 3895 
Q 1441 3806 1441 3553 
L 1441 3319 
L 2097 3319 
L 2097 2628 
L 1441 2628 
L 1441 0 
L 563 0 
L 563 2628 
L 75 2628 
L 75 3319 
z
" id="Arial-BoldMT-66" transform="scale(0.015625)"/>
      <path d="M 1116 2306 
L 319 2450 
Q 453 2931 781 3162 
Q 1109 3394 1756 3394 
Q 2344 3394 2631 3255 
Q 2919 3116 3036 2902 
Q 3153 2688 3153 2116 
L 3144 1091 
Q 3144 653 3186 445 
Q 3228 238 3344 0 
L 2475 0 
Q 2441 88 2391 259 
Q 2369 338 2359 363 
Q 2134 144 1878 34 
Q 1622 -75 1331 -75 
Q 819 -75 523 203 
Q 228 481 228 906 
Q 228 1188 362 1408 
Q 497 1628 739 1745 
Q 981 1863 1438 1950 
Q 2053 2066 2291 2166 
L 2291 2253 
Q 2291 2506 2166 2614 
Q 2041 2722 1694 2722 
Q 1459 2722 1328 2630 
Q 1197 2538 1116 2306 
z
M 2291 1594 
Q 2122 1538 1756 1459 
Q 1391 1381 1278 1306 
Q 1106 1184 1106 997 
Q 1106 813 1243 678 
Q 1381 544 1594 544 
Q 1831 544 2047 700 
Q 2206 819 2256 991 
Q 2291 1103 2291 1419 
L 2291 1594 
z
" id="Arial-BoldMT-61" transform="scale(0.015625)"/>
      <path d="M 1981 3319 
L 1981 2619 
L 1381 2619 
L 1381 1281 
Q 1381 875 1398 808 
Q 1416 741 1477 697 
Q 1538 653 1625 653 
Q 1747 653 1978 738 
L 2053 56 
Q 1747 -75 1359 -75 
Q 1122 -75 931 4 
Q 741 84 652 211 
Q 563 338 528 553 
Q 500 706 500 1172 
L 500 2619 
L 97 2619 
L 97 3319 
L 500 3319 
L 500 3978 
L 1381 4491 
L 1381 3319 
L 1981 3319 
z
" id="Arial-BoldMT-74" transform="scale(0.015625)"/>
      <path d="M 1334 4581 
L 1334 2897 
Q 1759 3394 2350 3394 
Q 2653 3394 2897 3281 
Q 3141 3169 3264 2994 
Q 3388 2819 3433 2606 
Q 3478 2394 3478 1947 
L 3478 0 
L 2600 0 
L 2600 1753 
Q 2600 2275 2550 2415 
Q 2500 2556 2373 2639 
Q 2247 2722 2056 2722 
Q 1838 2722 1666 2615 
Q 1494 2509 1414 2295 
Q 1334 2081 1334 1663 
L 1334 0 
L 456 0 
L 456 4581 
L 1334 4581 
z
" id="Arial-BoldMT-68" transform="scale(0.015625)"/>
      <path d="M 150 947 
L 1031 1081 
Q 1088 825 1259 692 
Q 1431 559 1741 559 
Q 2081 559 2253 684 
Q 2369 772 2369 919 
Q 2369 1019 2306 1084 
Q 2241 1147 2013 1200 
Q 950 1434 666 1628 
Q 272 1897 272 2375 
Q 272 2806 612 3100 
Q 953 3394 1669 3394 
Q 2350 3394 2681 3172 
Q 3013 2950 3138 2516 
L 2309 2363 
Q 2256 2556 2107 2659 
Q 1959 2763 1684 2763 
Q 1338 2763 1188 2666 
Q 1088 2597 1088 2488 
Q 1088 2394 1175 2328 
Q 1294 2241 1995 2081 
Q 2697 1922 2975 1691 
Q 3250 1456 3250 1038 
Q 3250 581 2869 253 
Q 2488 -75 1741 -75 
Q 1063 -75 667 200 
Q 272 475 150 947 
z
" id="Arial-BoldMT-73" transform="scale(0.015625)"/>
      <path d="M 1078 0 
L 28 3319 
L 881 3319 
L 1503 1144 
L 2075 3319 
L 2922 3319 
L 3475 1144 
L 4109 3319 
L 4975 3319 
L 3909 0 
L 3066 0 
L 2494 2134 
L 1931 0 
L 1078 0 
z
" id="Arial-BoldMT-77" transform="scale(0.015625)"/>
      <path d="M 1372 0 
L 34 3319 
L 956 3319 
L 1581 1625 
L 1763 1059 
Q 1834 1275 1853 1344 
Q 1897 1484 1947 1625 
L 2578 3319 
L 3481 3319 
L 2163 0 
L 1372 0 
z
" id="Arial-BoldMT-76" transform="scale(0.015625)"/>
      <path d="M 459 0 
L 459 878 
L 1338 878 
L 1338 0 
L 459 0 
z
" id="Arial-BoldMT-2e" transform="scale(0.015625)"/>
     </defs>
     <use xlink:href="#Arial-BoldMT-4e"/>
     <use x="72.216797" xlink:href="#Arial-BoldMT-75"/>
     <use x="133.300781" xlink:href="#Arial-BoldMT-6d"/>
     <use x="222.216797" xlink:href="#Arial-BoldMT-62"/>
     <use x="283.300781" xlink:href="#Arial-BoldMT-65"/>
     <use x="338.916016" xlink:href="#Arial-BoldMT-72"/>
     <use x="377.832031" xlink:href="#Arial-BoldMT-20"/>
     <use x="405.615234" xlink:href="#Arial-BoldMT-6f"/>
     <use x="466.699219" xlink:href="#Arial-BoldMT-66"/>
     <use x="500" xlink:href="#Arial-BoldMT-20"/>
     <use x="527.783203" xlink:href="#Arial-BoldMT-61"/>
     <use x="583.398438" xlink:href="#Arial-BoldMT-75"/>
     <use x="644.482422" xlink:href="#Arial-BoldMT-74"/>
     <use x="677.783203" xlink:href="#Arial-BoldMT-68"/>
     <use x="738.867188" xlink:href="#Arial-BoldMT-6f"/>
     <use x="799.951172" xlink:href="#Arial-BoldMT-72"/>
     <use x="838.867188" xlink:href="#Arial-BoldMT-73"/>
     <use x="894.482422" xlink:href="#Arial-BoldMT-20"/>
     <use x="922.265625" xlink:href="#Arial-BoldMT-77"/>
     <use x="1000.048828" xlink:href="#Arial-BoldMT-68"/>
     <use x="1061.132812" xlink:href="#Arial-BoldMT-6f"/>
     <use x="1122.216797" xlink:href="#Arial-BoldMT-20"/>
     <use x="1150" xlink:href="#Arial-BoldMT-68"/>
     <use x="1211.083984" xlink:href="#Arial-BoldMT-61"/>
     <use x="1266.699219" xlink:href="#Arial-BoldMT-76"/>
     <use x="1322.314453" xlink:href="#Arial-BoldMT-65"/>
     <use x="1377.929688" xlink:href="#Arial-BoldMT-2e"/>
     <use x="1405.712891" xlink:href="#Arial-BoldMT-2e"/>
     <use x="1433.496094" xlink:href="#Arial-BoldMT-2e"/>
    </g>
   </g>
  </g>
 </g>
 <defs>
  <clipPath id="p3926f18de6">
   <rect height="587.088" width="1071.36" x="14.4" y="45.873438"/>
  </clipPath>
 </defs>
</svg>
