<?xml version="1.0" encoding="utf-8" standalone="no"?>
<!DOCTYPE svg PUBLIC "-//W3C//DTD SVG 1.1//EN"
  "http://www.w3.org/Graphics/SVG/1.1/DTD/svg11.dtd">
<svg height="693.648pt" version="1.1" viewBox="0 0 1135.189062 693.648" width="1135.189062pt" xmlns="http://www.w3.org/2000/svg" xmlns:xlink="http://www.w3.org/1999/xlink">
 <metadata>
  <rdf:RDF xmlns:cc="http://creativecommons.org/ns#" xmlns:dc="http://purl.org/dc/elements/1.1/" xmlns:rdf="http://www.w3.org/1999/02/22-rdf-syntax-ns#">
   <cc:Work>
    <dc:type rdf:resource="http://purl.org/dc/dcmitype/StillImage"/>
    <dc:date>2021-05-03T22:28:28.294858</dc:date>
    <dc:format>image/svg+xml</dc:format>
    <dc:creator>
     <cc:Agent>
      <dc:title>Matplotlib v3.4.1, https://matplotlib.org/</dc:title>
     </cc:Agent>
    </dc:creator>
   </cc:Work>
  </rdf:RDF>
 </metadata>
 <defs>
  <style type="text/css">*{stroke-linecap:butt;stroke-linejoin:round;}</style>
 </defs>
 <g id="figure_1">
  <g id="patch_1">
   <path d="M 0 693.648 
L 1135.189062 693.648 
L 1135.189062 0 
L 0 0 
z
" style="fill:#ffffff;"/>
  </g>
  <g id="axes_1">
   <g id="patch_2">
    <path d="M 39.419375 679.248 
L 495.317247 679.248 
L 495.317247 92.16 
L 39.419375 92.16 
z
" style="fill:#ffffff;"/>
   </g>
   <g id="patch_3">
    <path clip-path="url(#p2f68c8b4ef)" d="M 495.317247 102.770024 
L 39.419375 102.770024 
L 39.419375 123.990072 
L 495.317247 123.990072 
z
" style="fill:url(#h7c8e17e3ba);stroke:#000000;stroke-linejoin:miter;stroke-width:2;"/>
   </g>
   <g id="patch_4">
    <path clip-path="url(#p2f68c8b4ef)" d="M 495.317247 131.063422 
L 150.477403 131.063422 
L 150.477403 152.28347 
L 495.317247 152.28347 
z
" style="fill:url(#h7c8e17e3ba);stroke:#000000;stroke-linejoin:miter;stroke-width:2;"/>
   </g>
   <g id="patch_5">
    <path clip-path="url(#p2f68c8b4ef)" d="M 495.317247 159.356819 
L 340.862595 159.356819 
L 340.862595 180.576867 
L 495.317247 180.576867 
z
" style="fill:url(#ha1a5f0e17f);stroke:#000000;stroke-linejoin:miter;stroke-width:2;"/>
   </g>
   <g id="patch_6">
    <path clip-path="url(#p2f68c8b4ef)" d="M 495.317247 187.650217 
L 372.126829 187.650217 
L 372.126829 208.870265 
L 495.317247 208.870265 
z
" style="fill:url(#ha1a5f0e17f);stroke:#000000;stroke-linejoin:miter;stroke-width:2;"/>
   </g>
   <g id="patch_7">
    <path clip-path="url(#p2f68c8b4ef)" d="M 495.317247 215.943614 
L 391.725305 215.943614 
L 391.725305 237.163663 
L 495.317247 237.163663 
z
" style="fill:url(#ha1a5f0e17f);stroke:#000000;stroke-linejoin:miter;stroke-width:2;"/>
   </g>
   <g id="patch_8">
    <path clip-path="url(#p2f68c8b4ef)" d="M 495.317247 244.237012 
L 421.589649 244.237012 
L 421.589649 265.45706 
L 495.317247 265.45706 
z
" style="fill:url(#ha1a5f0e17f);stroke:#000000;stroke-linejoin:miter;stroke-width:2;"/>
   </g>
   <g id="patch_9">
    <path clip-path="url(#p2f68c8b4ef)" d="M 495.317247 272.53041 
L 440.254864 272.53041 
L 440.254864 293.750458 
L 495.317247 293.750458 
z
" style="fill:url(#ha1a5f0e17f);stroke:#000000;stroke-linejoin:miter;stroke-width:2;"/>
   </g>
   <g id="patch_10">
    <path clip-path="url(#p2f68c8b4ef)" d="M 495.317247 300.823807 
L 449.587471 300.823807 
L 449.587471 322.043855 
L 495.317247 322.043855 
z
" style="fill:url(#ha1a5f0e17f);stroke:#000000;stroke-linejoin:miter;stroke-width:2;"/>
   </g>
   <g id="patch_11">
    <path clip-path="url(#p2f68c8b4ef)" d="M 495.317247 329.117205 
L 452.853884 329.117205 
L 452.853884 350.337253 
L 495.317247 350.337253 
z
" style="fill:url(#ha1a5f0e17f);stroke:#000000;stroke-linejoin:miter;stroke-width:2;"/>
   </g>
   <g id="patch_12">
    <path clip-path="url(#p2f68c8b4ef)" d="M 495.317247 357.410602 
L 456.120296 357.410602 
L 456.120296 378.630651 
L 495.317247 378.630651 
z
" style="fill:url(#ha1a5f0e17f);stroke:#000000;stroke-linejoin:miter;stroke-width:2;"/>
   </g>
   <g id="patch_13">
    <path clip-path="url(#p2f68c8b4ef)" d="M 495.317247 385.704 
L 463.119752 385.704 
L 463.119752 406.924048 
L 495.317247 406.924048 
z
" style="fill:url(#ha1a5f0e17f);stroke:#000000;stroke-linejoin:miter;stroke-width:2;"/>
   </g>
   <g id="patch_14">
    <path clip-path="url(#p2f68c8b4ef)" d="M 495.317247 413.997398 
L 464.053012 413.997398 
L 464.053012 435.217446 
L 495.317247 435.217446 
z
" style="fill:url(#ha1a5f0e17f);stroke:#000000;stroke-linejoin:miter;stroke-width:2;"/>
   </g>
   <g id="patch_15">
    <path clip-path="url(#p2f68c8b4ef)" d="M 495.317247 442.290795 
L 464.986273 442.290795 
L 464.986273 463.510843 
L 495.317247 463.510843 
z
" style="fill:url(#h7c8e17e3ba);stroke:#000000;stroke-linejoin:miter;stroke-width:2;"/>
   </g>
   <g id="patch_16">
    <path clip-path="url(#p2f68c8b4ef)" d="M 495.317247 470.584193 
L 464.986273 470.584193 
L 464.986273 491.804241 
L 495.317247 491.804241 
z
" style="fill:url(#h7c8e17e3ba);stroke:#000000;stroke-linejoin:miter;stroke-width:2;"/>
   </g>
   <g id="patch_17">
    <path clip-path="url(#p2f68c8b4ef)" d="M 495.317247 498.87759 
L 466.386164 498.87759 
L 466.386164 520.097639 
L 495.317247 520.097639 
z
" style="fill:url(#ha1a5f0e17f);stroke:#000000;stroke-linejoin:miter;stroke-width:2;"/>
   </g>
   <g id="patch_18">
    <path clip-path="url(#p2f68c8b4ef)" d="M 495.317247 527.170988 
L 470.585838 527.170988 
L 470.585838 548.391036 
L 495.317247 548.391036 
z
" style="fill:url(#h44a1d55877);stroke:#000000;stroke-linejoin:miter;stroke-width:2;"/>
   </g>
   <g id="patch_19">
    <path clip-path="url(#p2f68c8b4ef)" d="M 495.317247 555.464386 
L 471.052468 555.464386 
L 471.052468 576.684434 
L 495.317247 576.684434 
z
" style="fill:url(#ha1a5f0e17f);stroke:#000000;stroke-linejoin:miter;stroke-width:2;"/>
   </g>
   <g id="patch_20">
    <path clip-path="url(#p2f68c8b4ef)" d="M 495.317247 583.757783 
L 471.985729 583.757783 
L 471.985729 604.977831 
L 495.317247 604.977831 
z
" style="fill:url(#ha1a5f0e17f);stroke:#000000;stroke-linejoin:miter;stroke-width:2;"/>
   </g>
   <g id="patch_21">
    <path clip-path="url(#p2f68c8b4ef)" d="M 495.317247 612.051181 
L 475.252141 612.051181 
L 475.252141 633.271229 
L 495.317247 633.271229 
z
" style="fill:url(#ha1a5f0e17f);stroke:#000000;stroke-linejoin:miter;stroke-width:2;"/>
   </g>
   <g id="patch_22">
    <path clip-path="url(#p2f68c8b4ef)" d="M 495.317247 640.344578 
L 475.718772 640.344578 
L 475.718772 661.564627 
L 495.317247 661.564627 
z
" style="fill:url(#ha1a5f0e17f);stroke:#000000;stroke-linejoin:miter;stroke-width:2;"/>
   </g>
   <g id="matplotlib.axis_1">
    <g id="xtick_1">
     <g id="line2d_1">
      <defs>
       <path d="M 0 0 
L 0 -3.5 
" id="mad9f3bbdd6" style="stroke:#000000;stroke-width:0.8;"/>
      </defs>
      <g>
       <use style="stroke:#000000;stroke-width:0.8;" x="495.317247" xlink:href="#mad9f3bbdd6" y="92.16"/>
      </g>
     </g>
     <g id="text_1">
      <!-- 0 -->
      <g transform="translate(491.980685 82.791875)scale(0.12 -0.12)">
       <defs>
        <path d="M 1756 4600 
Q 2422 4600 2797 4125 
Q 3244 3563 3244 2259 
Q 3244 959 2794 391 
Q 2422 -78 1756 -78 
Q 1088 -78 678 436 
Q 269 950 269 2269 
Q 269 3563 719 4131 
Q 1091 4600 1756 4600 
z
M 1756 3872 
Q 1597 3872 1472 3770 
Q 1347 3669 1278 3406 
Q 1188 3066 1188 2259 
Q 1188 1453 1269 1151 
Q 1350 850 1473 750 
Q 1597 650 1756 650 
Q 1916 650 2041 751 
Q 2166 853 2234 1116 
Q 2325 1453 2325 2259 
Q 2325 3066 2244 3367 
Q 2163 3669 2039 3770 
Q 1916 3872 1756 3872 
z
" id="Arial-BoldMT-30" transform="scale(0.015625)"/>
       </defs>
       <use xlink:href="#Arial-BoldMT-30"/>
      </g>
     </g>
    </g>
    <g id="xtick_2">
     <g id="line2d_2">
      <g>
       <use style="stroke:#000000;stroke-width:0.8;" x="267.601626" xlink:href="#mad9f3bbdd6" y="92.16"/>
      </g>
     </g>
     <g id="text_2">
      <!-- 488 -->
      <g transform="translate(257.591939 82.791875)scale(0.12 -0.12)">
       <defs>
        <path d="M 1994 0 
L 1994 922 
L 119 922 
L 119 1691 
L 2106 4600 
L 2844 4600 
L 2844 1694 
L 3413 1694 
L 3413 922 
L 2844 922 
L 2844 0 
L 1994 0 
z
M 1994 1694 
L 1994 3259 
L 941 1694 
L 1994 1694 
z
" id="Arial-BoldMT-34" transform="scale(0.015625)"/>
        <path d="M 1025 2472 
Q 684 2616 529 2867 
Q 375 3119 375 3419 
Q 375 3931 733 4265 
Q 1091 4600 1750 4600 
Q 2403 4600 2764 4265 
Q 3125 3931 3125 3419 
Q 3125 3100 2959 2851 
Q 2794 2603 2494 2472 
Q 2875 2319 3073 2025 
Q 3272 1731 3272 1347 
Q 3272 713 2867 316 
Q 2463 -81 1791 -81 
Q 1166 -81 750 247 
Q 259 634 259 1309 
Q 259 1681 443 1992 
Q 628 2303 1025 2472 
z
M 1206 3356 
Q 1206 3094 1354 2947 
Q 1503 2800 1750 2800 
Q 2000 2800 2150 2948 
Q 2300 3097 2300 3359 
Q 2300 3606 2151 3754 
Q 2003 3903 1759 3903 
Q 1506 3903 1356 3753 
Q 1206 3603 1206 3356 
z
M 1125 1394 
Q 1125 1031 1311 828 
Q 1497 625 1775 625 
Q 2047 625 2225 820 
Q 2403 1016 2403 1384 
Q 2403 1706 2222 1901 
Q 2041 2097 1763 2097 
Q 1441 2097 1283 1875 
Q 1125 1653 1125 1394 
z
" id="Arial-BoldMT-38" transform="scale(0.015625)"/>
       </defs>
       <use xlink:href="#Arial-BoldMT-34"/>
       <use x="55.615234" xlink:href="#Arial-BoldMT-38"/>
       <use x="111.230469" xlink:href="#Arial-BoldMT-38"/>
      </g>
     </g>
    </g>
    <g id="xtick_3">
     <g id="line2d_3">
      <g>
       <use style="stroke:#000000;stroke-width:0.8;" x="39.419375" xlink:href="#mad9f3bbdd6" y="92.16"/>
      </g>
     </g>
     <g id="text_3">
      <!-- 977 -->
      <g transform="translate(29.409688 82.791875)scale(0.12 -0.12)">
       <defs>
        <path d="M 291 1059 
L 1141 1153 
Q 1172 894 1303 769 
Q 1434 644 1650 644 
Q 1922 644 2112 894 
Q 2303 1144 2356 1931 
Q 2025 1547 1528 1547 
Q 988 1547 595 1964 
Q 203 2381 203 3050 
Q 203 3747 617 4173 
Q 1031 4600 1672 4600 
Q 2369 4600 2816 4061 
Q 3263 3522 3263 2288 
Q 3263 1031 2797 475 
Q 2331 -81 1584 -81 
Q 1047 -81 715 205 
Q 384 491 291 1059 
z
M 2278 2978 
Q 2278 3403 2083 3637 
Q 1888 3872 1631 3872 
Q 1388 3872 1227 3680 
Q 1066 3488 1066 3050 
Q 1066 2606 1241 2398 
Q 1416 2191 1678 2191 
Q 1931 2191 2104 2391 
Q 2278 2591 2278 2978 
z
" id="Arial-BoldMT-39" transform="scale(0.015625)"/>
        <path d="M 272 3703 
L 272 4519 
L 3275 4519 
L 3275 3881 
Q 2903 3516 2518 2831 
Q 2134 2147 1932 1376 
Q 1731 606 1734 0 
L 888 0 
Q 909 950 1279 1937 
Q 1650 2925 2269 3703 
L 272 3703 
z
" id="Arial-BoldMT-37" transform="scale(0.015625)"/>
       </defs>
       <use xlink:href="#Arial-BoldMT-39"/>
       <use x="55.615234" xlink:href="#Arial-BoldMT-37"/>
       <use x="111.230469" xlink:href="#Arial-BoldMT-37"/>
      </g>
     </g>
    </g>
   </g>
   <g id="matplotlib.axis_2">
    <g id="ytick_1">
     <g id="text_4">
      <!-- well -->
      <g style="fill:#12a173;" transform="translate(502.317247 117.674736)scale(0.12 -0.12)">
       <defs>
        <path d="M 1078 0 
L 28 3319 
L 881 3319 
L 1503 1144 
L 2075 3319 
L 2922 3319 
L 3475 1144 
L 4109 3319 
L 4975 3319 
L 3909 0 
L 3066 0 
L 2494 2134 
L 1931 0 
L 1078 0 
z
" id="Arial-BoldMT-77" transform="scale(0.015625)"/>
        <path d="M 2381 1056 
L 3256 909 
Q 3088 428 2723 176 
Q 2359 -75 1813 -75 
Q 947 -75 531 491 
Q 203 944 203 1634 
Q 203 2459 634 2926 
Q 1066 3394 1725 3394 
Q 2466 3394 2894 2905 
Q 3322 2416 3303 1406 
L 1103 1406 
Q 1113 1016 1316 798 
Q 1519 581 1822 581 
Q 2028 581 2168 693 
Q 2309 806 2381 1056 
z
M 2431 1944 
Q 2422 2325 2234 2523 
Q 2047 2722 1778 2722 
Q 1491 2722 1303 2513 
Q 1116 2303 1119 1944 
L 2431 1944 
z
" id="Arial-BoldMT-65" transform="scale(0.015625)"/>
        <path d="M 459 0 
L 459 4581 
L 1338 4581 
L 1338 0 
L 459 0 
z
" id="Arial-BoldMT-6c" transform="scale(0.015625)"/>
       </defs>
       <use xlink:href="#Arial-BoldMT-77"/>
       <use x="77.783203" xlink:href="#Arial-BoldMT-65"/>
       <use x="133.398438" xlink:href="#Arial-BoldMT-6c"/>
       <use x="161.181641" xlink:href="#Arial-BoldMT-6c"/>
      </g>
     </g>
    </g>
    <g id="ytick_2">
     <g id="text_5">
      <!-- beautifully -->
      <g style="fill:#12a173;" transform="translate(502.317247 146.041258)scale(0.12 -0.12)">
       <defs>
        <path d="M 422 0 
L 422 4581 
L 1300 4581 
L 1300 2931 
Q 1706 3394 2263 3394 
Q 2869 3394 3266 2955 
Q 3663 2516 3663 1694 
Q 3663 844 3258 384 
Q 2853 -75 2275 -75 
Q 1991 -75 1714 67 
Q 1438 209 1238 488 
L 1238 0 
L 422 0 
z
M 1294 1731 
Q 1294 1216 1456 969 
Q 1684 619 2063 619 
Q 2353 619 2558 867 
Q 2763 1116 2763 1650 
Q 2763 2219 2556 2470 
Q 2350 2722 2028 2722 
Q 1713 2722 1503 2476 
Q 1294 2231 1294 1731 
z
" id="Arial-BoldMT-62" transform="scale(0.015625)"/>
        <path d="M 1116 2306 
L 319 2450 
Q 453 2931 781 3162 
Q 1109 3394 1756 3394 
Q 2344 3394 2631 3255 
Q 2919 3116 3036 2902 
Q 3153 2688 3153 2116 
L 3144 1091 
Q 3144 653 3186 445 
Q 3228 238 3344 0 
L 2475 0 
Q 2441 88 2391 259 
Q 2369 338 2359 363 
Q 2134 144 1878 34 
Q 1622 -75 1331 -75 
Q 819 -75 523 203 
Q 228 481 228 906 
Q 228 1188 362 1408 
Q 497 1628 739 1745 
Q 981 1863 1438 1950 
Q 2053 2066 2291 2166 
L 2291 2253 
Q 2291 2506 2166 2614 
Q 2041 2722 1694 2722 
Q 1459 2722 1328 2630 
Q 1197 2538 1116 2306 
z
M 2291 1594 
Q 2122 1538 1756 1459 
Q 1391 1381 1278 1306 
Q 1106 1184 1106 997 
Q 1106 813 1243 678 
Q 1381 544 1594 544 
Q 1831 544 2047 700 
Q 2206 819 2256 991 
Q 2291 1103 2291 1419 
L 2291 1594 
z
" id="Arial-BoldMT-61" transform="scale(0.015625)"/>
        <path d="M 2644 0 
L 2644 497 
Q 2463 231 2167 78 
Q 1872 -75 1544 -75 
Q 1209 -75 943 72 
Q 678 219 559 484 
Q 441 750 441 1219 
L 441 3319 
L 1319 3319 
L 1319 1794 
Q 1319 1094 1367 936 
Q 1416 778 1544 686 
Q 1672 594 1869 594 
Q 2094 594 2272 717 
Q 2450 841 2515 1023 
Q 2581 1206 2581 1919 
L 2581 3319 
L 3459 3319 
L 3459 0 
L 2644 0 
z
" id="Arial-BoldMT-75" transform="scale(0.015625)"/>
        <path d="M 1981 3319 
L 1981 2619 
L 1381 2619 
L 1381 1281 
Q 1381 875 1398 808 
Q 1416 741 1477 697 
Q 1538 653 1625 653 
Q 1747 653 1978 738 
L 2053 56 
Q 1747 -75 1359 -75 
Q 1122 -75 931 4 
Q 741 84 652 211 
Q 563 338 528 553 
Q 500 706 500 1172 
L 500 2619 
L 97 2619 
L 97 3319 
L 500 3319 
L 500 3978 
L 1381 4491 
L 1381 3319 
L 1981 3319 
z
" id="Arial-BoldMT-74" transform="scale(0.015625)"/>
        <path d="M 459 3769 
L 459 4581 
L 1338 4581 
L 1338 3769 
L 459 3769 
z
M 459 0 
L 459 3319 
L 1338 3319 
L 1338 0 
L 459 0 
z
" id="Arial-BoldMT-69" transform="scale(0.015625)"/>
        <path d="M 75 3319 
L 563 3319 
L 563 3569 
Q 563 3988 652 4194 
Q 741 4400 980 4529 
Q 1219 4659 1584 4659 
Q 1959 4659 2319 4547 
L 2200 3934 
Q 1991 3984 1797 3984 
Q 1606 3984 1523 3895 
Q 1441 3806 1441 3553 
L 1441 3319 
L 2097 3319 
L 2097 2628 
L 1441 2628 
L 1441 0 
L 563 0 
L 563 2628 
L 75 2628 
L 75 3319 
z
" id="Arial-BoldMT-66" transform="scale(0.015625)"/>
        <path d="M 44 3319 
L 978 3319 
L 1772 963 
L 2547 3319 
L 3456 3319 
L 2284 125 
L 2075 -453 
Q 1959 -744 1854 -897 
Q 1750 -1050 1614 -1145 
Q 1478 -1241 1279 -1294 
Q 1081 -1347 831 -1347 
Q 578 -1347 334 -1294 
L 256 -606 
Q 463 -647 628 -647 
Q 934 -647 1081 -467 
Q 1228 -288 1306 -9 
L 44 3319 
z
" id="Arial-BoldMT-79" transform="scale(0.015625)"/>
       </defs>
       <use xlink:href="#Arial-BoldMT-62"/>
       <use x="61.083984" xlink:href="#Arial-BoldMT-65"/>
       <use x="116.699219" xlink:href="#Arial-BoldMT-61"/>
       <use x="172.314453" xlink:href="#Arial-BoldMT-75"/>
       <use x="233.398438" xlink:href="#Arial-BoldMT-74"/>
       <use x="266.699219" xlink:href="#Arial-BoldMT-69"/>
       <use x="294.482422" xlink:href="#Arial-BoldMT-66"/>
       <use x="327.783203" xlink:href="#Arial-BoldMT-75"/>
       <use x="388.867188" xlink:href="#Arial-BoldMT-6c"/>
       <use x="416.650391" xlink:href="#Arial-BoldMT-6c"/>
       <use x="444.433594" xlink:href="#Arial-BoldMT-79"/>
      </g>
     </g>
    </g>
    <g id="ytick_3">
     <g id="text_6">
      <!-- ever -->
      <g style="fill:#123ea1;" transform="translate(502.317247 174.261531)scale(0.12 -0.12)">
       <defs>
        <path d="M 1372 0 
L 34 3319 
L 956 3319 
L 1581 1625 
L 1763 1059 
Q 1834 1275 1853 1344 
Q 1897 1484 1947 1625 
L 2578 3319 
L 3481 3319 
L 2163 0 
L 1372 0 
z
" id="Arial-BoldMT-76" transform="scale(0.015625)"/>
        <path d="M 1300 0 
L 422 0 
L 422 3319 
L 1238 3319 
L 1238 2847 
Q 1447 3181 1614 3287 
Q 1781 3394 1994 3394 
Q 2294 3394 2572 3228 
L 2300 2463 
Q 2078 2606 1888 2606 
Q 1703 2606 1575 2504 
Q 1447 2403 1373 2137 
Q 1300 1872 1300 1025 
L 1300 0 
z
" id="Arial-BoldMT-72" transform="scale(0.015625)"/>
       </defs>
       <use xlink:href="#Arial-BoldMT-65"/>
       <use x="55.615234" xlink:href="#Arial-BoldMT-76"/>
       <use x="111.230469" xlink:href="#Arial-BoldMT-65"/>
       <use x="166.845703" xlink:href="#Arial-BoldMT-72"/>
      </g>
     </g>
    </g>
    <g id="ytick_4">
     <g id="text_7">
      <!-- when -->
      <g style="fill:#123ea1;" transform="translate(502.317247 202.554928)scale(0.12 -0.12)">
       <defs>
        <path d="M 1334 4581 
L 1334 2897 
Q 1759 3394 2350 3394 
Q 2653 3394 2897 3281 
Q 3141 3169 3264 2994 
Q 3388 2819 3433 2606 
Q 3478 2394 3478 1947 
L 3478 0 
L 2600 0 
L 2600 1753 
Q 2600 2275 2550 2415 
Q 2500 2556 2373 2639 
Q 2247 2722 2056 2722 
Q 1838 2722 1666 2615 
Q 1494 2509 1414 2295 
Q 1334 2081 1334 1663 
L 1334 0 
L 456 0 
L 456 4581 
L 1334 4581 
z
" id="Arial-BoldMT-68" transform="scale(0.015625)"/>
        <path d="M 3478 0 
L 2600 0 
L 2600 1694 
Q 2600 2231 2544 2389 
Q 2488 2547 2361 2634 
Q 2234 2722 2056 2722 
Q 1828 2722 1647 2597 
Q 1466 2472 1398 2265 
Q 1331 2059 1331 1503 
L 1331 0 
L 453 0 
L 453 3319 
L 1269 3319 
L 1269 2831 
Q 1703 3394 2363 3394 
Q 2653 3394 2893 3289 
Q 3134 3184 3257 3021 
Q 3381 2859 3429 2653 
Q 3478 2447 3478 2063 
L 3478 0 
z
" id="Arial-BoldMT-6e" transform="scale(0.015625)"/>
       </defs>
       <use xlink:href="#Arial-BoldMT-77"/>
       <use x="77.783203" xlink:href="#Arial-BoldMT-68"/>
       <use x="138.867188" xlink:href="#Arial-BoldMT-65"/>
       <use x="194.482422" xlink:href="#Arial-BoldMT-6e"/>
      </g>
     </g>
    </g>
    <g id="ytick_5">
     <g id="text_8">
      <!-- how -->
      <g style="fill:#123ea1;" transform="translate(502.317247 230.848326)scale(0.12 -0.12)">
       <defs>
        <path d="M 256 1706 
Q 256 2144 472 2553 
Q 688 2963 1083 3178 
Q 1478 3394 1966 3394 
Q 2719 3394 3200 2905 
Q 3681 2416 3681 1669 
Q 3681 916 3195 420 
Q 2709 -75 1972 -75 
Q 1516 -75 1102 131 
Q 688 338 472 736 
Q 256 1134 256 1706 
z
M 1156 1659 
Q 1156 1166 1390 903 
Q 1625 641 1969 641 
Q 2313 641 2545 903 
Q 2778 1166 2778 1666 
Q 2778 2153 2545 2415 
Q 2313 2678 1969 2678 
Q 1625 2678 1390 2415 
Q 1156 2153 1156 1659 
z
" id="Arial-BoldMT-6f" transform="scale(0.015625)"/>
       </defs>
       <use xlink:href="#Arial-BoldMT-68"/>
       <use x="61.083984" xlink:href="#Arial-BoldMT-6f"/>
       <use x="122.167969" xlink:href="#Arial-BoldMT-77"/>
      </g>
     </g>
    </g>
    <g id="ytick_6">
     <g id="text_9">
      <!-- originally -->
      <g style="fill:#123ea1;" transform="translate(502.317247 259.141724)scale(0.12 -0.12)">
       <defs>
        <path d="M 378 -219 
L 1381 -341 
Q 1406 -516 1497 -581 
Q 1622 -675 1891 -675 
Q 2234 -675 2406 -572 
Q 2522 -503 2581 -350 
Q 2622 -241 2622 53 
L 2622 538 
Q 2228 0 1628 0 
Q 959 0 569 566 
Q 263 1013 263 1678 
Q 263 2513 664 2953 
Q 1066 3394 1663 3394 
Q 2278 3394 2678 2853 
L 2678 3319 
L 3500 3319 
L 3500 341 
Q 3500 -247 3403 -537 
Q 3306 -828 3131 -993 
Q 2956 -1159 2664 -1253 
Q 2372 -1347 1925 -1347 
Q 1081 -1347 728 -1058 
Q 375 -769 375 -325 
Q 375 -281 378 -219 
z
M 1163 1728 
Q 1163 1200 1367 954 
Q 1572 709 1872 709 
Q 2194 709 2416 961 
Q 2638 1213 2638 1706 
Q 2638 2222 2425 2472 
Q 2213 2722 1888 2722 
Q 1572 2722 1367 2476 
Q 1163 2231 1163 1728 
z
" id="Arial-BoldMT-67" transform="scale(0.015625)"/>
       </defs>
       <use xlink:href="#Arial-BoldMT-6f"/>
       <use x="61.083984" xlink:href="#Arial-BoldMT-72"/>
       <use x="100" xlink:href="#Arial-BoldMT-69"/>
       <use x="127.783203" xlink:href="#Arial-BoldMT-67"/>
       <use x="188.867188" xlink:href="#Arial-BoldMT-69"/>
       <use x="216.650391" xlink:href="#Arial-BoldMT-6e"/>
       <use x="277.734375" xlink:href="#Arial-BoldMT-61"/>
       <use x="333.349609" xlink:href="#Arial-BoldMT-6c"/>
       <use x="361.132812" xlink:href="#Arial-BoldMT-6c"/>
       <use x="388.916016" xlink:href="#Arial-BoldMT-79"/>
      </g>
     </g>
    </g>
    <g id="ytick_7">
     <g id="text_10">
      <!-- ago -->
      <g style="fill:#123ea1;" transform="translate(502.317247 287.356371)scale(0.12 -0.12)">
       <use xlink:href="#Arial-BoldMT-61"/>
       <use x="55.615234" xlink:href="#Arial-BoldMT-67"/>
       <use x="116.699219" xlink:href="#Arial-BoldMT-6f"/>
      </g>
     </g>
    </g>
    <g id="ytick_8">
     <g id="text_11">
      <!-- also -->
      <g style="fill:#123ea1;" transform="translate(502.317247 315.728519)scale(0.12 -0.12)">
       <defs>
        <path d="M 150 947 
L 1031 1081 
Q 1088 825 1259 692 
Q 1431 559 1741 559 
Q 2081 559 2253 684 
Q 2369 772 2369 919 
Q 2369 1019 2306 1084 
Q 2241 1147 2013 1200 
Q 950 1434 666 1628 
Q 272 1897 272 2375 
Q 272 2806 612 3100 
Q 953 3394 1669 3394 
Q 2350 3394 2681 3172 
Q 3013 2950 3138 2516 
L 2309 2363 
Q 2256 2556 2107 2659 
Q 1959 2763 1684 2763 
Q 1338 2763 1188 2666 
Q 1088 2597 1088 2488 
Q 1088 2394 1175 2328 
Q 1294 2241 1995 2081 
Q 2697 1922 2975 1691 
Q 3250 1456 3250 1038 
Q 3250 581 2869 253 
Q 2488 -75 1741 -75 
Q 1063 -75 667 200 
Q 272 475 150 947 
z
" id="Arial-BoldMT-73" transform="scale(0.015625)"/>
       </defs>
       <use xlink:href="#Arial-BoldMT-61"/>
       <use x="55.615234" xlink:href="#Arial-BoldMT-6c"/>
       <use x="83.398438" xlink:href="#Arial-BoldMT-73"/>
       <use x="139.013672" xlink:href="#Arial-BoldMT-6f"/>
      </g>
     </g>
    </g>
    <g id="ytick_9">
     <g id="text_12">
      <!-- so -->
      <g style="fill:#123ea1;" transform="translate(502.317247 344.021916)scale(0.12 -0.12)">
       <use xlink:href="#Arial-BoldMT-73"/>
       <use x="55.615234" xlink:href="#Arial-BoldMT-6f"/>
      </g>
     </g>
    </g>
    <g id="ytick_10">
     <g id="text_13">
      <!-- just -->
      <g style="fill:#123ea1;" transform="translate(502.317247 372.315314)scale(0.12 -0.12)">
       <defs>
        <path d="M 441 3769 
L 441 4581 
L 1319 4581 
L 1319 3769 
L 441 3769 
z
M 1319 3319 
L 1319 103 
Q 1319 -531 1236 -792 
Q 1153 -1053 917 -1200 
Q 681 -1347 316 -1347 
Q 184 -1347 32 -1323 
Q -119 -1300 -294 -1253 
L -141 -503 
Q -78 -516 -23 -523 
Q 31 -531 78 -531 
Q 213 -531 298 -473 
Q 384 -416 412 -334 
Q 441 -253 441 153 
L 441 3319 
L 1319 3319 
z
" id="Arial-BoldMT-6a" transform="scale(0.015625)"/>
       </defs>
       <use xlink:href="#Arial-BoldMT-6a"/>
       <use x="27.783203" xlink:href="#Arial-BoldMT-75"/>
       <use x="88.867188" xlink:href="#Arial-BoldMT-73"/>
       <use x="144.482422" xlink:href="#Arial-BoldMT-74"/>
      </g>
     </g>
    </g>
    <g id="ytick_11">
     <g id="text_14">
      <!-- even -->
      <g style="fill:#123ea1;" transform="translate(502.317247 400.608712)scale(0.12 -0.12)">
       <use xlink:href="#Arial-BoldMT-65"/>
       <use x="55.615234" xlink:href="#Arial-BoldMT-76"/>
       <use x="111.230469" xlink:href="#Arial-BoldMT-65"/>
       <use x="166.845703" xlink:href="#Arial-BoldMT-6e"/>
      </g>
     </g>
    </g>
    <g id="ytick_12">
     <g id="text_15">
      <!-- why -->
      <g style="fill:#123ea1;" transform="translate(502.317247 428.902109)scale(0.12 -0.12)">
       <use xlink:href="#Arial-BoldMT-77"/>
       <use x="77.783203" xlink:href="#Arial-BoldMT-68"/>
       <use x="138.867188" xlink:href="#Arial-BoldMT-79"/>
      </g>
     </g>
    </g>
    <g id="ytick_13">
     <g id="text_16">
      <!-- brilliantly -->
      <g style="fill:#12a173;" transform="translate(502.317247 457.195507)scale(0.12 -0.12)">
       <use xlink:href="#Arial-BoldMT-62"/>
       <use x="61.083984" xlink:href="#Arial-BoldMT-72"/>
       <use x="100" xlink:href="#Arial-BoldMT-69"/>
       <use x="127.783203" xlink:href="#Arial-BoldMT-6c"/>
       <use x="155.566406" xlink:href="#Arial-BoldMT-6c"/>
       <use x="183.349609" xlink:href="#Arial-BoldMT-69"/>
       <use x="211.132812" xlink:href="#Arial-BoldMT-61"/>
       <use x="266.748047" xlink:href="#Arial-BoldMT-6e"/>
       <use x="327.832031" xlink:href="#Arial-BoldMT-74"/>
       <use x="361.132812" xlink:href="#Arial-BoldMT-6c"/>
       <use x="388.916016" xlink:href="#Arial-BoldMT-79"/>
      </g>
     </g>
    </g>
    <g id="ytick_14">
     <g id="text_17">
      <!-- wonderfully -->
      <g style="fill:#12a173;" transform="translate(502.317247 485.562029)scale(0.12 -0.12)">
       <defs>
        <path d="M 3503 0 
L 2688 0 
L 2688 488 
Q 2484 203 2207 64 
Q 1931 -75 1650 -75 
Q 1078 -75 670 386 
Q 263 847 263 1672 
Q 263 2516 659 2955 
Q 1056 3394 1663 3394 
Q 2219 3394 2625 2931 
L 2625 4581 
L 3503 4581 
L 3503 0 
z
M 1159 1731 
Q 1159 1200 1306 963 
Q 1519 619 1900 619 
Q 2203 619 2415 876 
Q 2628 1134 2628 1647 
Q 2628 2219 2422 2470 
Q 2216 2722 1894 2722 
Q 1581 2722 1370 2473 
Q 1159 2225 1159 1731 
z
" id="Arial-BoldMT-64" transform="scale(0.015625)"/>
       </defs>
       <use xlink:href="#Arial-BoldMT-77"/>
       <use x="77.783203" xlink:href="#Arial-BoldMT-6f"/>
       <use x="138.867188" xlink:href="#Arial-BoldMT-6e"/>
       <use x="199.951172" xlink:href="#Arial-BoldMT-64"/>
       <use x="261.035156" xlink:href="#Arial-BoldMT-65"/>
       <use x="316.650391" xlink:href="#Arial-BoldMT-72"/>
       <use x="355.566406" xlink:href="#Arial-BoldMT-66"/>
       <use x="388.867188" xlink:href="#Arial-BoldMT-75"/>
       <use x="449.951172" xlink:href="#Arial-BoldMT-6c"/>
       <use x="477.734375" xlink:href="#Arial-BoldMT-6c"/>
       <use x="505.517578" xlink:href="#Arial-BoldMT-79"/>
      </g>
     </g>
    </g>
    <g id="ytick_15">
     <g id="text_18">
      <!-- really -->
      <g style="fill:#123ea1;" transform="translate(502.317247 513.782302)scale(0.12 -0.12)">
       <use xlink:href="#Arial-BoldMT-72"/>
       <use x="38.916016" xlink:href="#Arial-BoldMT-65"/>
       <use x="94.53125" xlink:href="#Arial-BoldMT-61"/>
       <use x="150.146484" xlink:href="#Arial-BoldMT-6c"/>
       <use x="177.929688" xlink:href="#Arial-BoldMT-6c"/>
       <use x="205.712891" xlink:href="#Arial-BoldMT-79"/>
      </g>
     </g>
    </g>
    <g id="ytick_16">
     <g id="text_19">
      <!-- poorly -->
      <g style="fill:#8a300f;" transform="translate(502.317247 542.0757)scale(0.12 -0.12)">
       <defs>
        <path d="M 434 3319 
L 1253 3319 
L 1253 2831 
Q 1413 3081 1684 3237 
Q 1956 3394 2288 3394 
Q 2866 3394 3269 2941 
Q 3672 2488 3672 1678 
Q 3672 847 3265 386 
Q 2859 -75 2281 -75 
Q 2006 -75 1782 34 
Q 1559 144 1313 409 
L 1313 -1263 
L 434 -1263 
L 434 3319 
z
M 1303 1716 
Q 1303 1156 1525 889 
Q 1747 622 2066 622 
Q 2372 622 2575 867 
Q 2778 1113 2778 1672 
Q 2778 2194 2568 2447 
Q 2359 2700 2050 2700 
Q 1728 2700 1515 2451 
Q 1303 2203 1303 1716 
z
" id="Arial-BoldMT-70" transform="scale(0.015625)"/>
       </defs>
       <use xlink:href="#Arial-BoldMT-70"/>
       <use x="61.083984" xlink:href="#Arial-BoldMT-6f"/>
       <use x="122.167969" xlink:href="#Arial-BoldMT-6f"/>
       <use x="183.251953" xlink:href="#Arial-BoldMT-72"/>
       <use x="222.167969" xlink:href="#Arial-BoldMT-6c"/>
       <use x="249.951172" xlink:href="#Arial-BoldMT-79"/>
      </g>
     </g>
    </g>
    <g id="ytick_17">
     <g id="text_20">
      <!-- simply -->
      <g style="fill:#123ea1;" transform="translate(502.317247 570.369097)scale(0.12 -0.12)">
       <defs>
        <path d="M 394 3319 
L 1203 3319 
L 1203 2866 
Q 1638 3394 2238 3394 
Q 2556 3394 2790 3262 
Q 3025 3131 3175 2866 
Q 3394 3131 3647 3262 
Q 3900 3394 4188 3394 
Q 4553 3394 4806 3245 
Q 5059 3097 5184 2809 
Q 5275 2597 5275 2122 
L 5275 0 
L 4397 0 
L 4397 1897 
Q 4397 2391 4306 2534 
Q 4184 2722 3931 2722 
Q 3747 2722 3584 2609 
Q 3422 2497 3350 2280 
Q 3278 2063 3278 1594 
L 3278 0 
L 2400 0 
L 2400 1819 
Q 2400 2303 2353 2443 
Q 2306 2584 2207 2653 
Q 2109 2722 1941 2722 
Q 1738 2722 1575 2612 
Q 1413 2503 1342 2297 
Q 1272 2091 1272 1613 
L 1272 0 
L 394 0 
L 394 3319 
z
" id="Arial-BoldMT-6d" transform="scale(0.015625)"/>
       </defs>
       <use xlink:href="#Arial-BoldMT-73"/>
       <use x="55.615234" xlink:href="#Arial-BoldMT-69"/>
       <use x="83.398438" xlink:href="#Arial-BoldMT-6d"/>
       <use x="172.314453" xlink:href="#Arial-BoldMT-70"/>
       <use x="233.398438" xlink:href="#Arial-BoldMT-6c"/>
       <use x="261.181641" xlink:href="#Arial-BoldMT-79"/>
      </g>
     </g>
    </g>
    <g id="ytick_18">
     <g id="text_21">
      <!-- then -->
      <g style="fill:#123ea1;" transform="translate(502.317247 598.662495)scale(0.12 -0.12)">
       <use xlink:href="#Arial-BoldMT-74"/>
       <use x="33.300781" xlink:href="#Arial-BoldMT-68"/>
       <use x="94.384766" xlink:href="#Arial-BoldMT-65"/>
       <use x="150" xlink:href="#Arial-BoldMT-6e"/>
      </g>
     </g>
    </g>
    <g id="ytick_19">
     <g id="text_22">
      <!-- only -->
      <g style="fill:#123ea1;" transform="translate(502.317247 626.955892)scale(0.12 -0.12)">
       <use xlink:href="#Arial-BoldMT-6f"/>
       <use x="61.083984" xlink:href="#Arial-BoldMT-6e"/>
       <use x="122.167969" xlink:href="#Arial-BoldMT-6c"/>
       <use x="149.951172" xlink:href="#Arial-BoldMT-79"/>
      </g>
     </g>
    </g>
    <g id="ytick_20">
     <g id="text_23">
      <!-- actually -->
      <g style="fill:#123ea1;" transform="translate(502.317247 655.24929)scale(0.12 -0.12)">
       <defs>
        <path d="M 3353 2338 
L 2488 2181 
Q 2444 2441 2289 2572 
Q 2134 2703 1888 2703 
Q 1559 2703 1364 2476 
Q 1169 2250 1169 1719 
Q 1169 1128 1367 884 
Q 1566 641 1900 641 
Q 2150 641 2309 783 
Q 2469 925 2534 1272 
L 3397 1125 
Q 3263 531 2881 228 
Q 2500 -75 1859 -75 
Q 1131 -75 698 384 
Q 266 844 266 1656 
Q 266 2478 700 2936 
Q 1134 3394 1875 3394 
Q 2481 3394 2839 3133 
Q 3197 2872 3353 2338 
z
" id="Arial-BoldMT-63" transform="scale(0.015625)"/>
       </defs>
       <use xlink:href="#Arial-BoldMT-61"/>
       <use x="55.615234" xlink:href="#Arial-BoldMT-63"/>
       <use x="111.230469" xlink:href="#Arial-BoldMT-74"/>
       <use x="144.53125" xlink:href="#Arial-BoldMT-75"/>
       <use x="205.615234" xlink:href="#Arial-BoldMT-61"/>
       <use x="261.230469" xlink:href="#Arial-BoldMT-6c"/>
       <use x="289.013672" xlink:href="#Arial-BoldMT-6c"/>
       <use x="316.796875" xlink:href="#Arial-BoldMT-79"/>
      </g>
     </g>
    </g>
   </g>
   <g id="patch_23">
    <path d="M 495.317247 679.248 
L 495.317247 92.16 
" style="fill:none;stroke:#000000;stroke-linecap:square;stroke-linejoin:miter;stroke-width:1.5;"/>
   </g>
   <g id="patch_24">
    <path d="M 39.419375 92.16 
L 495.317247 92.16 
" style="fill:none;stroke:#000000;stroke-linecap:square;stroke-linejoin:miter;stroke-width:1.5;"/>
   </g>
   <g id="text_24">
    <!-- 977 -->
    <g transform="translate(14.4 117.674736)scale(0.12 -0.12)">
     <defs>
      <path d="M 350 1059 
L 891 1109 
Q 959 728 1153 556 
Q 1347 384 1650 384 
Q 1909 384 2104 503 
Q 2300 622 2425 820 
Q 2550 1019 2634 1356 
Q 2719 1694 2719 2044 
Q 2719 2081 2716 2156 
Q 2547 1888 2255 1720 
Q 1963 1553 1622 1553 
Q 1053 1553 659 1965 
Q 266 2378 266 3053 
Q 266 3750 677 4175 
Q 1088 4600 1706 4600 
Q 2153 4600 2523 4359 
Q 2894 4119 3086 3673 
Q 3278 3228 3278 2384 
Q 3278 1506 3087 986 
Q 2897 466 2520 194 
Q 2144 -78 1638 -78 
Q 1100 -78 759 220 
Q 419 519 350 1059 
z
M 2653 3081 
Q 2653 3566 2395 3850 
Q 2138 4134 1775 4134 
Q 1400 4134 1122 3828 
Q 844 3522 844 3034 
Q 844 2597 1108 2323 
Q 1372 2050 1759 2050 
Q 2150 2050 2401 2323 
Q 2653 2597 2653 3081 
z
" id="ArialMT-39" transform="scale(0.015625)"/>
      <path d="M 303 3981 
L 303 4522 
L 3269 4522 
L 3269 4084 
Q 2831 3619 2401 2847 
Q 1972 2075 1738 1259 
Q 1569 684 1522 0 
L 944 0 
Q 953 541 1156 1306 
Q 1359 2072 1739 2783 
Q 2119 3494 2547 3981 
L 303 3981 
z
" id="ArialMT-37" transform="scale(0.015625)"/>
     </defs>
     <use xlink:href="#ArialMT-39"/>
     <use x="55.615234" xlink:href="#ArialMT-37"/>
     <use x="111.230469" xlink:href="#ArialMT-37"/>
    </g>
   </g>
   <g id="text_25">
    <!-- 739 -->
    <g transform="translate(125.458028 145.968133)scale(0.12 -0.12)">
     <defs>
      <path d="M 269 1209 
L 831 1284 
Q 928 806 1161 595 
Q 1394 384 1728 384 
Q 2125 384 2398 659 
Q 2672 934 2672 1341 
Q 2672 1728 2419 1979 
Q 2166 2231 1775 2231 
Q 1616 2231 1378 2169 
L 1441 2663 
Q 1497 2656 1531 2656 
Q 1891 2656 2178 2843 
Q 2466 3031 2466 3422 
Q 2466 3731 2256 3934 
Q 2047 4138 1716 4138 
Q 1388 4138 1169 3931 
Q 950 3725 888 3313 
L 325 3413 
Q 428 3978 793 4289 
Q 1159 4600 1703 4600 
Q 2078 4600 2393 4439 
Q 2709 4278 2876 4000 
Q 3044 3722 3044 3409 
Q 3044 3113 2884 2869 
Q 2725 2625 2413 2481 
Q 2819 2388 3044 2092 
Q 3269 1797 3269 1353 
Q 3269 753 2831 336 
Q 2394 -81 1725 -81 
Q 1122 -81 723 278 
Q 325 638 269 1209 
z
" id="ArialMT-33" transform="scale(0.015625)"/>
     </defs>
     <use xlink:href="#ArialMT-37"/>
     <use x="55.615234" xlink:href="#ArialMT-33"/>
     <use x="111.230469" xlink:href="#ArialMT-39"/>
    </g>
   </g>
   <g id="text_26">
    <!-- 331 -->
    <g transform="translate(315.84322 174.261531)scale(0.12 -0.12)">
     <defs>
      <path d="M 2384 0 
L 1822 0 
L 1822 3584 
Q 1619 3391 1289 3197 
Q 959 3003 697 2906 
L 697 3450 
Q 1169 3672 1522 3987 
Q 1875 4303 2022 4600 
L 2384 4600 
L 2384 0 
z
" id="ArialMT-31" transform="scale(0.015625)"/>
     </defs>
     <use xlink:href="#ArialMT-33"/>
     <use x="55.615234" xlink:href="#ArialMT-33"/>
     <use x="111.230469" xlink:href="#ArialMT-31"/>
    </g>
   </g>
   <g id="text_27">
    <!-- 264 -->
    <g transform="translate(347.107454 202.554928)scale(0.12 -0.12)">
     <defs>
      <path d="M 3222 541 
L 3222 0 
L 194 0 
Q 188 203 259 391 
Q 375 700 629 1000 
Q 884 1300 1366 1694 
Q 2113 2306 2375 2664 
Q 2638 3022 2638 3341 
Q 2638 3675 2398 3904 
Q 2159 4134 1775 4134 
Q 1369 4134 1125 3890 
Q 881 3647 878 3216 
L 300 3275 
Q 359 3922 746 4261 
Q 1134 4600 1788 4600 
Q 2447 4600 2831 4234 
Q 3216 3869 3216 3328 
Q 3216 3053 3103 2787 
Q 2991 2522 2730 2228 
Q 2469 1934 1863 1422 
Q 1356 997 1212 845 
Q 1069 694 975 541 
L 3222 541 
z
" id="ArialMT-32" transform="scale(0.015625)"/>
      <path d="M 3184 3459 
L 2625 3416 
Q 2550 3747 2413 3897 
Q 2184 4138 1850 4138 
Q 1581 4138 1378 3988 
Q 1113 3794 959 3422 
Q 806 3050 800 2363 
Q 1003 2672 1297 2822 
Q 1591 2972 1913 2972 
Q 2475 2972 2870 2558 
Q 3266 2144 3266 1488 
Q 3266 1056 3080 686 
Q 2894 316 2569 119 
Q 2244 -78 1831 -78 
Q 1128 -78 684 439 
Q 241 956 241 2144 
Q 241 3472 731 4075 
Q 1159 4600 1884 4600 
Q 2425 4600 2770 4297 
Q 3116 3994 3184 3459 
z
M 888 1484 
Q 888 1194 1011 928 
Q 1134 663 1356 523 
Q 1578 384 1822 384 
Q 2178 384 2434 671 
Q 2691 959 2691 1453 
Q 2691 1928 2437 2201 
Q 2184 2475 1800 2475 
Q 1419 2475 1153 2201 
Q 888 1928 888 1484 
z
" id="ArialMT-36" transform="scale(0.015625)"/>
      <path d="M 2069 0 
L 2069 1097 
L 81 1097 
L 81 1613 
L 2172 4581 
L 2631 4581 
L 2631 1613 
L 3250 1613 
L 3250 1097 
L 2631 1097 
L 2631 0 
L 2069 0 
z
M 2069 1613 
L 2069 3678 
L 634 1613 
L 2069 1613 
z
" id="ArialMT-34" transform="scale(0.015625)"/>
     </defs>
     <use xlink:href="#ArialMT-32"/>
     <use x="55.615234" xlink:href="#ArialMT-36"/>
     <use x="111.230469" xlink:href="#ArialMT-34"/>
    </g>
   </g>
   <g id="text_28">
    <!-- 222 -->
    <g transform="translate(366.70593 230.848326)scale(0.12 -0.12)">
     <use xlink:href="#ArialMT-32"/>
     <use x="55.615234" xlink:href="#ArialMT-32"/>
     <use x="111.230469" xlink:href="#ArialMT-32"/>
    </g>
   </g>
   <g id="text_29">
    <!-- 158 -->
    <g transform="translate(396.570274 259.141724)scale(0.12 -0.12)">
     <defs>
      <path d="M 266 1200 
L 856 1250 
Q 922 819 1161 601 
Q 1400 384 1738 384 
Q 2144 384 2425 690 
Q 2706 997 2706 1503 
Q 2706 1984 2436 2262 
Q 2166 2541 1728 2541 
Q 1456 2541 1237 2417 
Q 1019 2294 894 2097 
L 366 2166 
L 809 4519 
L 3088 4519 
L 3088 3981 
L 1259 3981 
L 1013 2750 
Q 1425 3038 1878 3038 
Q 2478 3038 2890 2622 
Q 3303 2206 3303 1553 
Q 3303 931 2941 478 
Q 2500 -78 1738 -78 
Q 1113 -78 717 272 
Q 322 622 266 1200 
z
" id="ArialMT-35" transform="scale(0.015625)"/>
      <path d="M 1131 2484 
Q 781 2613 612 2850 
Q 444 3088 444 3419 
Q 444 3919 803 4259 
Q 1163 4600 1759 4600 
Q 2359 4600 2725 4251 
Q 3091 3903 3091 3403 
Q 3091 3084 2923 2848 
Q 2756 2613 2416 2484 
Q 2838 2347 3058 2040 
Q 3278 1734 3278 1309 
Q 3278 722 2862 322 
Q 2447 -78 1769 -78 
Q 1091 -78 675 323 
Q 259 725 259 1325 
Q 259 1772 486 2073 
Q 713 2375 1131 2484 
z
M 1019 3438 
Q 1019 3113 1228 2906 
Q 1438 2700 1772 2700 
Q 2097 2700 2305 2904 
Q 2513 3109 2513 3406 
Q 2513 3716 2298 3927 
Q 2084 4138 1766 4138 
Q 1444 4138 1231 3931 
Q 1019 3725 1019 3438 
z
M 838 1322 
Q 838 1081 952 856 
Q 1066 631 1291 507 
Q 1516 384 1775 384 
Q 2178 384 2440 643 
Q 2703 903 2703 1303 
Q 2703 1709 2433 1975 
Q 2163 2241 1756 2241 
Q 1359 2241 1098 1978 
Q 838 1716 838 1322 
z
" id="ArialMT-38" transform="scale(0.015625)"/>
     </defs>
     <use xlink:href="#ArialMT-31"/>
     <use x="55.615234" xlink:href="#ArialMT-35"/>
     <use x="111.230469" xlink:href="#ArialMT-38"/>
    </g>
   </g>
   <g id="text_30">
    <!-- 118 -->
    <g transform="translate(416.120489 287.435121)scale(0.12 -0.12)">
     <use xlink:href="#ArialMT-31"/>
     <use x="48.240234" xlink:href="#ArialMT-31"/>
     <use x="103.855469" xlink:href="#ArialMT-38"/>
    </g>
   </g>
   <g id="text_31">
    <!-- 98 -->
    <g transform="translate(431.241221 315.728519)scale(0.12 -0.12)">
     <use xlink:href="#ArialMT-39"/>
     <use x="55.615234" xlink:href="#ArialMT-38"/>
    </g>
   </g>
   <g id="text_32">
    <!-- 91 -->
    <g transform="translate(434.507634 344.021916)scale(0.12 -0.12)">
     <use xlink:href="#ArialMT-39"/>
     <use x="55.615234" xlink:href="#ArialMT-31"/>
    </g>
   </g>
   <g id="text_33">
    <!-- 84 -->
    <g transform="translate(437.774046 372.315314)scale(0.12 -0.12)">
     <use xlink:href="#ArialMT-38"/>
     <use x="55.615234" xlink:href="#ArialMT-34"/>
    </g>
   </g>
   <g id="text_34">
    <!-- 69 -->
    <g transform="translate(444.773502 400.608712)scale(0.12 -0.12)">
     <use xlink:href="#ArialMT-36"/>
     <use x="55.615234" xlink:href="#ArialMT-39"/>
    </g>
   </g>
   <g id="text_35">
    <!-- 67 -->
    <g transform="translate(445.706762 428.902109)scale(0.12 -0.12)">
     <use xlink:href="#ArialMT-36"/>
     <use x="55.615234" xlink:href="#ArialMT-37"/>
    </g>
   </g>
   <g id="text_36">
    <!-- 65 -->
    <g transform="translate(446.640023 457.195507)scale(0.12 -0.12)">
     <use xlink:href="#ArialMT-36"/>
     <use x="55.615234" xlink:href="#ArialMT-35"/>
    </g>
   </g>
   <g id="text_37">
    <!-- 65 -->
    <g transform="translate(446.640023 485.488904)scale(0.12 -0.12)">
     <use xlink:href="#ArialMT-36"/>
     <use x="55.615234" xlink:href="#ArialMT-35"/>
    </g>
   </g>
   <g id="text_38">
    <!-- 62 -->
    <g transform="translate(448.039914 513.782302)scale(0.12 -0.12)">
     <use xlink:href="#ArialMT-36"/>
     <use x="55.615234" xlink:href="#ArialMT-32"/>
    </g>
   </g>
   <g id="text_39">
    <!-- 53 -->
    <g transform="translate(452.239588 542.0757)scale(0.12 -0.12)">
     <use xlink:href="#ArialMT-35"/>
     <use x="55.615234" xlink:href="#ArialMT-33"/>
    </g>
   </g>
   <g id="text_40">
    <!-- 52 -->
    <g transform="translate(452.706218 570.369097)scale(0.12 -0.12)">
     <use xlink:href="#ArialMT-35"/>
     <use x="55.615234" xlink:href="#ArialMT-32"/>
    </g>
   </g>
   <g id="text_41">
    <!-- 50 -->
    <g transform="translate(453.639479 598.662495)scale(0.12 -0.12)">
     <defs>
      <path d="M 266 2259 
Q 266 3072 433 3567 
Q 600 4063 929 4331 
Q 1259 4600 1759 4600 
Q 2128 4600 2406 4451 
Q 2684 4303 2865 4023 
Q 3047 3744 3150 3342 
Q 3253 2941 3253 2259 
Q 3253 1453 3087 958 
Q 2922 463 2592 192 
Q 2263 -78 1759 -78 
Q 1097 -78 719 397 
Q 266 969 266 2259 
z
M 844 2259 
Q 844 1131 1108 757 
Q 1372 384 1759 384 
Q 2147 384 2411 759 
Q 2675 1134 2675 2259 
Q 2675 3391 2411 3762 
Q 2147 4134 1753 4134 
Q 1366 4134 1134 3806 
Q 844 3388 844 2259 
z
" id="ArialMT-30" transform="scale(0.015625)"/>
     </defs>
     <use xlink:href="#ArialMT-35"/>
     <use x="55.615234" xlink:href="#ArialMT-30"/>
    </g>
   </g>
   <g id="text_42">
    <!-- 43 -->
    <g transform="translate(456.905891 626.955892)scale(0.12 -0.12)">
     <use xlink:href="#ArialMT-34"/>
     <use x="55.615234" xlink:href="#ArialMT-33"/>
    </g>
   </g>
   <g id="text_43">
    <!-- 42 -->
    <g transform="translate(457.372522 655.24929)scale(0.12 -0.12)">
     <use xlink:href="#ArialMT-34"/>
     <use x="55.615234" xlink:href="#ArialMT-32"/>
    </g>
   </g>
   <g id="text_44">
    <!-- 3650 4 15 1 -->
    <g transform="translate(85.009162 385.704)scale(0.12 -0.12)">
     <defs>
      <path id="ArialMT-20" transform="scale(0.015625)"/>
     </defs>
     <use xlink:href="#ArialMT-33"/>
     <use x="55.615234" xlink:href="#ArialMT-36"/>
     <use x="111.230469" xlink:href="#ArialMT-35"/>
     <use x="166.845703" xlink:href="#ArialMT-30"/>
     <use x="222.460938" xlink:href="#ArialMT-20"/>
     <use x="250.244141" xlink:href="#ArialMT-34"/>
     <use x="305.859375" xlink:href="#ArialMT-20"/>
     <use x="333.642578" xlink:href="#ArialMT-31"/>
     <use x="389.257812" xlink:href="#ArialMT-35"/>
     <use x="444.873047" xlink:href="#ArialMT-20"/>
     <use x="472.65625" xlink:href="#ArialMT-31"/>
    </g>
   </g>
   <g id="text_45">
    <!-- Top 20 modifiers for verb_write -->
    <g transform="translate(163.64253 64.2025)scale(0.14 -0.14)">
     <defs>
      <path d="M 1497 0 
L 1497 3806 
L 138 3806 
L 138 4581 
L 3778 4581 
L 3778 3806 
L 2422 3806 
L 2422 0 
L 1497 0 
z
" id="Arial-BoldMT-54" transform="scale(0.015625)"/>
      <path id="Arial-BoldMT-20" transform="scale(0.015625)"/>
      <path d="M 3238 816 
L 3238 0 
L 159 0 
Q 209 463 459 877 
Q 709 1291 1447 1975 
Q 2041 2528 2175 2725 
Q 2356 2997 2356 3263 
Q 2356 3556 2198 3714 
Q 2041 3872 1763 3872 
Q 1488 3872 1325 3706 
Q 1163 3541 1138 3156 
L 263 3244 
Q 341 3969 753 4284 
Q 1166 4600 1784 4600 
Q 2463 4600 2850 4234 
Q 3238 3869 3238 3325 
Q 3238 3016 3127 2736 
Q 3016 2456 2775 2150 
Q 2616 1947 2200 1565 
Q 1784 1184 1673 1059 
Q 1563 934 1494 816 
L 3238 816 
z
" id="Arial-BoldMT-32" transform="scale(0.015625)"/>
      <path d="M -59 -1266 
L -59 -697 
L 3591 -697 
L 3591 -1266 
L -59 -1266 
z
" id="Arial-BoldMT-5f" transform="scale(0.015625)"/>
     </defs>
     <use xlink:href="#Arial-BoldMT-54"/>
     <use x="53.708984" xlink:href="#Arial-BoldMT-6f"/>
     <use x="114.792969" xlink:href="#Arial-BoldMT-70"/>
     <use x="175.876953" xlink:href="#Arial-BoldMT-20"/>
     <use x="203.660156" xlink:href="#Arial-BoldMT-32"/>
     <use x="259.275391" xlink:href="#Arial-BoldMT-30"/>
     <use x="314.890625" xlink:href="#Arial-BoldMT-20"/>
     <use x="342.673828" xlink:href="#Arial-BoldMT-6d"/>
     <use x="431.589844" xlink:href="#Arial-BoldMT-6f"/>
     <use x="492.673828" xlink:href="#Arial-BoldMT-64"/>
     <use x="553.757812" xlink:href="#Arial-BoldMT-69"/>
     <use x="581.541016" xlink:href="#Arial-BoldMT-66"/>
     <use x="614.841797" xlink:href="#Arial-BoldMT-69"/>
     <use x="642.625" xlink:href="#Arial-BoldMT-65"/>
     <use x="698.240234" xlink:href="#Arial-BoldMT-72"/>
     <use x="737.15625" xlink:href="#Arial-BoldMT-73"/>
     <use x="792.771484" xlink:href="#Arial-BoldMT-20"/>
     <use x="820.554688" xlink:href="#Arial-BoldMT-66"/>
     <use x="853.855469" xlink:href="#Arial-BoldMT-6f"/>
     <use x="914.939453" xlink:href="#Arial-BoldMT-72"/>
     <use x="953.855469" xlink:href="#Arial-BoldMT-20"/>
     <use x="981.638672" xlink:href="#Arial-BoldMT-76"/>
     <use x="1037.253906" xlink:href="#Arial-BoldMT-65"/>
     <use x="1092.869141" xlink:href="#Arial-BoldMT-72"/>
     <use x="1131.785156" xlink:href="#Arial-BoldMT-62"/>
     <use x="1192.869141" xlink:href="#Arial-BoldMT-5f"/>
     <use x="1248.484375" xlink:href="#Arial-BoldMT-77"/>
     <use x="1326.267578" xlink:href="#Arial-BoldMT-72"/>
     <use x="1365.183594" xlink:href="#Arial-BoldMT-69"/>
     <use x="1392.966797" xlink:href="#Arial-BoldMT-74"/>
     <use x="1426.267578" xlink:href="#Arial-BoldMT-65"/>
    </g>
   </g>
  </g>
  <g id="axes_2">
   <g id="patch_25">
    <path d="M 654.881503 679.248 
L 1110.779375 679.248 
L 1110.779375 92.16 
L 654.881503 92.16 
z
" style="fill:#ffffff;"/>
   </g>
   <g id="patch_26">
    <path clip-path="url(#p999d8dfd79)" d="M 654.881503 102.770024 
L 694.078454 102.770024 
L 694.078454 123.990072 
L 654.881503 123.990072 
z
" style="fill:url(#h7c8e17e3ba);stroke:#000000;stroke-linejoin:miter;stroke-width:2;"/>
   </g>
   <g id="patch_27">
    <path clip-path="url(#p999d8dfd79)" d="M 654.881503 131.063422 
L 673.080087 131.063422 
L 673.080087 152.28347 
L 654.881503 152.28347 
z
" style="fill:url(#h7c8e17e3ba);stroke:#000000;stroke-linejoin:miter;stroke-width:2;"/>
   </g>
   <g id="patch_28">
    <path clip-path="url(#p999d8dfd79)" d="M 654.881503 159.356819 
L 671.213566 159.356819 
L 671.213566 180.576867 
L 654.881503 180.576867 
z
" style="fill:url(#ha1a5f0e17f);stroke:#000000;stroke-linejoin:miter;stroke-width:2;"/>
   </g>
   <g id="patch_29">
    <path clip-path="url(#p999d8dfd79)" d="M 654.881503 187.650217 
L 669.813675 187.650217 
L 669.813675 208.870265 
L 654.881503 208.870265 
z
" style="fill:url(#ha1a5f0e17f);stroke:#000000;stroke-linejoin:miter;stroke-width:2;"/>
   </g>
   <g id="patch_30">
    <path clip-path="url(#p999d8dfd79)" d="M 654.881503 215.943614 
L 666.080632 215.943614 
L 666.080632 237.163663 
L 654.881503 237.163663 
z
" style="fill:url(#ha1a5f0e17f);stroke:#000000;stroke-linejoin:miter;stroke-width:2;"/>
   </g>
   <g id="patch_31">
    <path clip-path="url(#p999d8dfd79)" d="M 654.881503 244.237012 
L 665.614001 244.237012 
L 665.614001 265.45706 
L 654.881503 265.45706 
z
" style="fill:url(#ha1a5f0e17f);stroke:#000000;stroke-linejoin:miter;stroke-width:2;"/>
   </g>
   <g id="patch_32">
    <path clip-path="url(#p999d8dfd79)" d="M 654.881503 272.53041 
L 665.147371 272.53041 
L 665.147371 293.750458 
L 654.881503 293.750458 
z
" style="fill:url(#ha1a5f0e17f);stroke:#000000;stroke-linejoin:miter;stroke-width:2;"/>
   </g>
   <g id="patch_33">
    <path clip-path="url(#p999d8dfd79)" d="M 654.881503 300.823807 
L 665.147371 300.823807 
L 665.147371 322.043855 
L 654.881503 322.043855 
z
" style="fill:url(#ha1a5f0e17f);stroke:#000000;stroke-linejoin:miter;stroke-width:2;"/>
   </g>
   <g id="patch_34">
    <path clip-path="url(#p999d8dfd79)" d="M 654.881503 329.117205 
L 663.280849 329.117205 
L 663.280849 350.337253 
L 654.881503 350.337253 
z
" style="fill:url(#ha1a5f0e17f);stroke:#000000;stroke-linejoin:miter;stroke-width:2;"/>
   </g>
   <g id="patch_35">
    <path clip-path="url(#p999d8dfd79)" d="M 654.881503 357.410602 
L 661.880958 357.410602 
L 661.880958 378.630651 
L 654.881503 378.630651 
z
" style="fill:url(#ha1a5f0e17f);stroke:#000000;stroke-linejoin:miter;stroke-width:2;"/>
   </g>
   <g id="patch_36">
    <path clip-path="url(#p999d8dfd79)" d="M 654.881503 385.704 
L 661.880958 385.704 
L 661.880958 406.924048 
L 654.881503 406.924048 
z
" style="fill:url(#ha1a5f0e17f);stroke:#000000;stroke-linejoin:miter;stroke-width:2;"/>
   </g>
   <g id="patch_37">
    <path clip-path="url(#p999d8dfd79)" d="M 654.881503 413.997398 
L 661.880958 413.997398 
L 661.880958 435.217446 
L 654.881503 435.217446 
z
" style="fill:url(#ha1a5f0e17f);stroke:#000000;stroke-linejoin:miter;stroke-width:2;"/>
   </g>
   <g id="patch_38">
    <path clip-path="url(#p999d8dfd79)" d="M 654.881503 442.290795 
L 660.014437 442.290795 
L 660.014437 463.510843 
L 654.881503 463.510843 
z
" style="fill:url(#ha1a5f0e17f);stroke:#000000;stroke-linejoin:miter;stroke-width:2;"/>
   </g>
   <g id="patch_39">
    <path clip-path="url(#p999d8dfd79)" d="M 654.881503 470.584193 
L 659.547806 470.584193 
L 659.547806 491.804241 
L 654.881503 491.804241 
z
" style="fill:url(#h7c8e17e3ba);stroke:#000000;stroke-linejoin:miter;stroke-width:2;"/>
   </g>
   <g id="patch_40">
    <path clip-path="url(#p999d8dfd79)" d="M 654.881503 498.87759 
L 659.547806 498.87759 
L 659.547806 520.097639 
L 654.881503 520.097639 
z
" style="fill:url(#h44a1d55877);stroke:#000000;stroke-linejoin:miter;stroke-width:2;"/>
   </g>
   <g id="patch_41">
    <path clip-path="url(#p999d8dfd79)" d="M 654.881503 527.170988 
L 659.081176 527.170988 
L 659.081176 548.391036 
L 654.881503 548.391036 
z
" style="fill:url(#ha1a5f0e17f);stroke:#000000;stroke-linejoin:miter;stroke-width:2;"/>
   </g>
   <g id="patch_42">
    <path clip-path="url(#p999d8dfd79)" d="M 654.881503 555.464386 
L 659.081176 555.464386 
L 659.081176 576.684434 
L 654.881503 576.684434 
z
" style="fill:url(#ha1a5f0e17f);stroke:#000000;stroke-linejoin:miter;stroke-width:2;"/>
   </g>
   <g id="patch_43">
    <path clip-path="url(#p999d8dfd79)" d="M 654.881503 583.757783 
L 659.081176 583.757783 
L 659.081176 604.977831 
L 654.881503 604.977831 
z
" style="fill:url(#ha1a5f0e17f);stroke:#000000;stroke-linejoin:miter;stroke-width:2;"/>
   </g>
   <g id="patch_44">
    <path clip-path="url(#p999d8dfd79)" d="M 654.881503 612.051181 
L 659.081176 612.051181 
L 659.081176 633.271229 
L 654.881503 633.271229 
z
" style="fill:url(#ha1a5f0e17f);stroke:#000000;stroke-linejoin:miter;stroke-width:2;"/>
   </g>
   <g id="patch_45">
    <path clip-path="url(#p999d8dfd79)" d="M 654.881503 640.344578 
L 658.614546 640.344578 
L 658.614546 661.564627 
L 654.881503 661.564627 
z
" style="fill:url(#ha1a5f0e17f);stroke:#000000;stroke-linejoin:miter;stroke-width:2;"/>
   </g>
   <g id="matplotlib.axis_3">
    <g id="xtick_4">
     <g id="line2d_4">
      <g>
       <use style="stroke:#000000;stroke-width:0.8;" x="654.881503" xlink:href="#mad9f3bbdd6" y="92.16"/>
      </g>
     </g>
     <g id="text_46">
      <!-- 0 -->
      <g transform="translate(651.54494 82.791875)scale(0.12 -0.12)">
       <use xlink:href="#Arial-BoldMT-30"/>
      </g>
     </g>
    </g>
    <g id="xtick_5">
     <g id="line2d_5">
      <g>
       <use style="stroke:#000000;stroke-width:0.8;" x="882.597124" xlink:href="#mad9f3bbdd6" y="92.16"/>
      </g>
     </g>
     <g id="text_47">
      <!-- 488 -->
      <g transform="translate(872.587436 82.791875)scale(0.12 -0.12)">
       <use xlink:href="#Arial-BoldMT-34"/>
       <use x="55.615234" xlink:href="#Arial-BoldMT-38"/>
       <use x="111.230469" xlink:href="#Arial-BoldMT-38"/>
      </g>
     </g>
    </g>
    <g id="xtick_6">
     <g id="line2d_6">
      <g>
       <use style="stroke:#000000;stroke-width:0.8;" x="1110.779375" xlink:href="#mad9f3bbdd6" y="92.16"/>
      </g>
     </g>
     <g id="text_48">
      <!-- 977 -->
      <g transform="translate(1100.769687 82.791875)scale(0.12 -0.12)">
       <use xlink:href="#Arial-BoldMT-39"/>
       <use x="55.615234" xlink:href="#Arial-BoldMT-37"/>
       <use x="111.230469" xlink:href="#Arial-BoldMT-37"/>
      </g>
     </g>
    </g>
   </g>
   <g id="matplotlib.axis_4">
    <g id="ytick_21">
     <g id="text_49">
      <!-- well -->
      <g style="fill:#12a173;" transform="translate(625.207128 117.674736)scale(0.12 -0.12)">
       <use xlink:href="#Arial-BoldMT-77"/>
       <use x="77.783203" xlink:href="#Arial-BoldMT-65"/>
       <use x="133.398438" xlink:href="#Arial-BoldMT-6c"/>
       <use x="161.181641" xlink:href="#Arial-BoldMT-6c"/>
      </g>
     </g>
    </g>
    <g id="ytick_22">
     <g id="text_50">
      <!-- beautifully -->
      <g style="fill:#12a173;" transform="translate(587.881503 146.041258)scale(0.12 -0.12)">
       <use xlink:href="#Arial-BoldMT-62"/>
       <use x="61.083984" xlink:href="#Arial-BoldMT-65"/>
       <use x="116.699219" xlink:href="#Arial-BoldMT-61"/>
       <use x="172.314453" xlink:href="#Arial-BoldMT-75"/>
       <use x="233.398438" xlink:href="#Arial-BoldMT-74"/>
       <use x="266.699219" xlink:href="#Arial-BoldMT-69"/>
       <use x="294.482422" xlink:href="#Arial-BoldMT-66"/>
       <use x="327.783203" xlink:href="#Arial-BoldMT-75"/>
       <use x="388.867188" xlink:href="#Arial-BoldMT-6c"/>
       <use x="416.650391" xlink:href="#Arial-BoldMT-6c"/>
       <use x="444.433594" xlink:href="#Arial-BoldMT-79"/>
      </g>
     </g>
    </g>
    <g id="ytick_23">
     <g id="text_51">
      <!-- also -->
      <g style="fill:#123ea1;" transform="translate(623.872128 174.261531)scale(0.12 -0.12)">
       <use xlink:href="#Arial-BoldMT-61"/>
       <use x="55.615234" xlink:href="#Arial-BoldMT-6c"/>
       <use x="83.398438" xlink:href="#Arial-BoldMT-73"/>
       <use x="139.013672" xlink:href="#Arial-BoldMT-6f"/>
      </g>
     </g>
    </g>
    <g id="ytick_24">
     <g id="text_52">
      <!-- when -->
      <g style="fill:#123ea1;" transform="translate(617.215878 202.554928)scale(0.12 -0.12)">
       <use xlink:href="#Arial-BoldMT-77"/>
       <use x="77.783203" xlink:href="#Arial-BoldMT-68"/>
       <use x="138.867188" xlink:href="#Arial-BoldMT-65"/>
       <use x="194.482422" xlink:href="#Arial-BoldMT-6e"/>
      </g>
     </g>
    </g>
    <g id="ytick_25">
     <g id="text_53">
      <!-- how -->
      <g style="fill:#123ea1;" transform="translate(623.889003 230.848326)scale(0.12 -0.12)">
       <use xlink:href="#Arial-BoldMT-68"/>
       <use x="61.083984" xlink:href="#Arial-BoldMT-6f"/>
       <use x="122.167969" xlink:href="#Arial-BoldMT-77"/>
      </g>
     </g>
    </g>
    <g id="ytick_26">
     <g id="text_54">
      <!-- recently -->
      <g style="fill:#123ea1;" transform="translate(601.859628 259.141724)scale(0.12 -0.12)">
       <use xlink:href="#Arial-BoldMT-72"/>
       <use x="38.916016" xlink:href="#Arial-BoldMT-65"/>
       <use x="94.53125" xlink:href="#Arial-BoldMT-63"/>
       <use x="150.146484" xlink:href="#Arial-BoldMT-65"/>
       <use x="205.761719" xlink:href="#Arial-BoldMT-6e"/>
       <use x="266.845703" xlink:href="#Arial-BoldMT-74"/>
       <use x="300.146484" xlink:href="#Arial-BoldMT-6c"/>
       <use x="327.929688" xlink:href="#Arial-BoldMT-79"/>
      </g>
     </g>
    </g>
    <g id="ytick_27">
     <g id="text_55">
      <!-- then -->
      <g style="fill:#123ea1;" transform="translate(622.554003 287.435121)scale(0.12 -0.12)">
       <use xlink:href="#Arial-BoldMT-74"/>
       <use x="33.300781" xlink:href="#Arial-BoldMT-68"/>
       <use x="94.384766" xlink:href="#Arial-BoldMT-65"/>
       <use x="150" xlink:href="#Arial-BoldMT-6e"/>
      </g>
     </g>
    </g>
    <g id="ytick_28">
     <g id="text_56">
      <!-- even -->
      <g style="fill:#123ea1;" transform="translate(620.532753 315.728519)scale(0.12 -0.12)">
       <use xlink:href="#Arial-BoldMT-65"/>
       <use x="55.615234" xlink:href="#Arial-BoldMT-76"/>
       <use x="111.230469" xlink:href="#Arial-BoldMT-65"/>
       <use x="166.845703" xlink:href="#Arial-BoldMT-6e"/>
      </g>
     </g>
    </g>
    <g id="ytick_29">
     <g id="text_57">
      <!-- just -->
      <g style="fill:#123ea1;" transform="translate(626.549628 344.021916)scale(0.12 -0.12)">
       <use xlink:href="#Arial-BoldMT-6a"/>
       <use x="27.783203" xlink:href="#Arial-BoldMT-75"/>
       <use x="88.867188" xlink:href="#Arial-BoldMT-73"/>
       <use x="144.482422" xlink:href="#Arial-BoldMT-74"/>
      </g>
     </g>
    </g>
    <g id="ytick_30">
     <g id="text_58">
      <!-- later -->
      <g style="fill:#123ea1;" transform="translate(622.535253 372.315314)scale(0.12 -0.12)">
       <use xlink:href="#Arial-BoldMT-6c"/>
       <use x="27.783203" xlink:href="#Arial-BoldMT-61"/>
       <use x="83.398438" xlink:href="#Arial-BoldMT-74"/>
       <use x="116.699219" xlink:href="#Arial-BoldMT-65"/>
       <use x="172.314453" xlink:href="#Arial-BoldMT-72"/>
      </g>
     </g>
    </g>
    <g id="ytick_31">
     <g id="text_59">
      <!-- directly -->
      <g style="fill:#123ea1;" transform="translate(605.199003 400.608712)scale(0.12 -0.12)">
       <use xlink:href="#Arial-BoldMT-64"/>
       <use x="61.083984" xlink:href="#Arial-BoldMT-69"/>
       <use x="88.867188" xlink:href="#Arial-BoldMT-72"/>
       <use x="127.783203" xlink:href="#Arial-BoldMT-65"/>
       <use x="183.398438" xlink:href="#Arial-BoldMT-63"/>
       <use x="239.013672" xlink:href="#Arial-BoldMT-74"/>
       <use x="272.314453" xlink:href="#Arial-BoldMT-6c"/>
       <use x="300.097656" xlink:href="#Arial-BoldMT-79"/>
      </g>
     </g>
    </g>
    <g id="ytick_32">
     <g id="text_60">
      <!-- literally -->
      <g style="fill:#123ea1;" transform="translate(605.860878 428.902109)scale(0.12 -0.12)">
       <use xlink:href="#Arial-BoldMT-6c"/>
       <use x="27.783203" xlink:href="#Arial-BoldMT-69"/>
       <use x="55.566406" xlink:href="#Arial-BoldMT-74"/>
       <use x="88.867188" xlink:href="#Arial-BoldMT-65"/>
       <use x="144.482422" xlink:href="#Arial-BoldMT-72"/>
       <use x="183.398438" xlink:href="#Arial-BoldMT-61"/>
       <use x="239.013672" xlink:href="#Arial-BoldMT-6c"/>
       <use x="266.796875" xlink:href="#Arial-BoldMT-6c"/>
       <use x="294.580078" xlink:href="#Arial-BoldMT-79"/>
      </g>
     </g>
    </g>
    <g id="ytick_33">
     <g id="text_61">
      <!-- only -->
      <g style="fill:#123ea1;" transform="translate(623.215878 457.195507)scale(0.12 -0.12)">
       <use xlink:href="#Arial-BoldMT-6f"/>
       <use x="61.083984" xlink:href="#Arial-BoldMT-6e"/>
       <use x="122.167969" xlink:href="#Arial-BoldMT-6c"/>
       <use x="149.951172" xlink:href="#Arial-BoldMT-79"/>
      </g>
     </g>
    </g>
    <g id="ytick_34">
     <g id="text_62">
      <!-- wonderfully -->
      <g style="fill:#12a173;" transform="translate(580.550253 485.562029)scale(0.12 -0.12)">
       <use xlink:href="#Arial-BoldMT-77"/>
       <use x="77.783203" xlink:href="#Arial-BoldMT-6f"/>
       <use x="138.867188" xlink:href="#Arial-BoldMT-6e"/>
       <use x="199.951172" xlink:href="#Arial-BoldMT-64"/>
       <use x="261.035156" xlink:href="#Arial-BoldMT-65"/>
       <use x="316.650391" xlink:href="#Arial-BoldMT-72"/>
       <use x="355.566406" xlink:href="#Arial-BoldMT-66"/>
       <use x="388.867188" xlink:href="#Arial-BoldMT-75"/>
       <use x="449.951172" xlink:href="#Arial-BoldMT-6c"/>
       <use x="477.734375" xlink:href="#Arial-BoldMT-6c"/>
       <use x="505.517578" xlink:href="#Arial-BoldMT-79"/>
      </g>
     </g>
    </g>
    <g id="ytick_35">
     <g id="text_63">
      <!-- poorly -->
      <g style="fill:#8a300f;" transform="translate(611.215878 513.782302)scale(0.12 -0.12)">
       <use xlink:href="#Arial-BoldMT-70"/>
       <use x="61.083984" xlink:href="#Arial-BoldMT-6f"/>
       <use x="122.167969" xlink:href="#Arial-BoldMT-6f"/>
       <use x="183.251953" xlink:href="#Arial-BoldMT-72"/>
       <use x="222.167969" xlink:href="#Arial-BoldMT-6c"/>
       <use x="249.951172" xlink:href="#Arial-BoldMT-79"/>
      </g>
     </g>
    </g>
    <g id="ytick_36">
     <g id="text_64">
      <!-- most -->
      <g style="fill:#123ea1;" transform="translate(619.212753 542.0757)scale(0.12 -0.12)">
       <use xlink:href="#Arial-BoldMT-6d"/>
       <use x="88.916016" xlink:href="#Arial-BoldMT-6f"/>
       <use x="150" xlink:href="#Arial-BoldMT-73"/>
       <use x="205.615234" xlink:href="#Arial-BoldMT-74"/>
      </g>
     </g>
    </g>
    <g id="ytick_37">
     <g id="text_65">
      <!-- first -->
      <g style="fill:#123ea1;" transform="translate(625.212753 570.369097)scale(0.12 -0.12)">
       <use xlink:href="#Arial-BoldMT-66"/>
       <use x="33.300781" xlink:href="#Arial-BoldMT-69"/>
       <use x="61.083984" xlink:href="#Arial-BoldMT-72"/>
       <use x="100" xlink:href="#Arial-BoldMT-73"/>
       <use x="155.615234" xlink:href="#Arial-BoldMT-74"/>
      </g>
     </g>
    </g>
    <g id="ytick_38">
     <g id="text_66">
      <!-- back -->
      <g style="fill:#123ea1;" transform="translate(620.532753 598.662495)scale(0.12 -0.12)">
       <defs>
        <path d="M 428 0 
L 428 4581 
L 1306 4581 
L 1306 2150 
L 2334 3319 
L 3416 3319 
L 2281 2106 
L 3497 0 
L 2550 0 
L 1716 1491 
L 1306 1063 
L 1306 0 
L 428 0 
z
" id="Arial-BoldMT-6b" transform="scale(0.015625)"/>
       </defs>
       <use xlink:href="#Arial-BoldMT-62"/>
       <use x="61.083984" xlink:href="#Arial-BoldMT-61"/>
       <use x="116.699219" xlink:href="#Arial-BoldMT-63"/>
       <use x="172.314453" xlink:href="#Arial-BoldMT-6b"/>
      </g>
     </g>
    </g>
    <g id="ytick_39">
     <g id="text_67">
      <!-- freely -->
      <g style="fill:#123ea1;" transform="translate(615.862128 627.029017)scale(0.12 -0.12)">
       <use xlink:href="#Arial-BoldMT-66"/>
       <use x="33.300781" xlink:href="#Arial-BoldMT-72"/>
       <use x="72.216797" xlink:href="#Arial-BoldMT-65"/>
       <use x="127.832031" xlink:href="#Arial-BoldMT-65"/>
       <use x="183.447266" xlink:href="#Arial-BoldMT-6c"/>
       <use x="211.230469" xlink:href="#Arial-BoldMT-79"/>
      </g>
     </g>
    </g>
    <g id="ytick_40">
     <g id="text_68">
      <!-- now -->
      <g style="fill:#123ea1;" transform="translate(623.889003 655.24929)scale(0.12 -0.12)">
       <use xlink:href="#Arial-BoldMT-6e"/>
       <use x="61.083984" xlink:href="#Arial-BoldMT-6f"/>
       <use x="122.167969" xlink:href="#Arial-BoldMT-77"/>
      </g>
     </g>
    </g>
   </g>
   <g id="patch_46">
    <path d="M 654.881503 679.248 
L 654.881503 92.16 
" style="fill:none;stroke:#000000;stroke-linecap:square;stroke-linejoin:miter;stroke-width:1.5;"/>
   </g>
   <g id="patch_47">
    <path d="M 654.881503 92.16 
L 1110.779375 92.16 
" style="fill:none;stroke:#000000;stroke-linecap:square;stroke-linejoin:miter;stroke-width:1.5;"/>
   </g>
   <g id="text_69">
    <!-- 84 -->
    <g transform="translate(699.078454 117.674736)scale(0.12 -0.12)">
     <use xlink:href="#ArialMT-38"/>
     <use x="55.615234" xlink:href="#ArialMT-34"/>
    </g>
   </g>
   <g id="text_70">
    <!-- 39 -->
    <g transform="translate(678.080087 145.968133)scale(0.12 -0.12)">
     <use xlink:href="#ArialMT-33"/>
     <use x="55.615234" xlink:href="#ArialMT-39"/>
    </g>
   </g>
   <g id="text_71">
    <!-- 35 -->
    <g transform="translate(676.213566 174.261531)scale(0.12 -0.12)">
     <use xlink:href="#ArialMT-33"/>
     <use x="55.615234" xlink:href="#ArialMT-35"/>
    </g>
   </g>
   <g id="text_72">
    <!-- 32 -->
    <g transform="translate(674.813675 202.554928)scale(0.12 -0.12)">
     <use xlink:href="#ArialMT-33"/>
     <use x="55.615234" xlink:href="#ArialMT-32"/>
    </g>
   </g>
   <g id="text_73">
    <!-- 24 -->
    <g transform="translate(671.080632 230.848326)scale(0.12 -0.12)">
     <use xlink:href="#ArialMT-32"/>
     <use x="55.615234" xlink:href="#ArialMT-34"/>
    </g>
   </g>
   <g id="text_74">
    <!-- 23 -->
    <g transform="translate(670.614001 259.141724)scale(0.12 -0.12)">
     <use xlink:href="#ArialMT-32"/>
     <use x="55.615234" xlink:href="#ArialMT-33"/>
    </g>
   </g>
   <g id="text_75">
    <!-- 22 -->
    <g transform="translate(670.147371 287.435121)scale(0.12 -0.12)">
     <use xlink:href="#ArialMT-32"/>
     <use x="55.615234" xlink:href="#ArialMT-32"/>
    </g>
   </g>
   <g id="text_76">
    <!-- 22 -->
    <g transform="translate(670.147371 315.728519)scale(0.12 -0.12)">
     <use xlink:href="#ArialMT-32"/>
     <use x="55.615234" xlink:href="#ArialMT-32"/>
    </g>
   </g>
   <g id="text_77">
    <!-- 18 -->
    <g transform="translate(668.280849 344.021916)scale(0.12 -0.12)">
     <use xlink:href="#ArialMT-31"/>
     <use x="55.615234" xlink:href="#ArialMT-38"/>
    </g>
   </g>
   <g id="text_78">
    <!-- 15 -->
    <g transform="translate(666.880958 372.315314)scale(0.12 -0.12)">
     <use xlink:href="#ArialMT-31"/>
     <use x="55.615234" xlink:href="#ArialMT-35"/>
    </g>
   </g>
   <g id="text_79">
    <!-- 15 -->
    <g transform="translate(666.880958 400.608712)scale(0.12 -0.12)">
     <use xlink:href="#ArialMT-31"/>
     <use x="55.615234" xlink:href="#ArialMT-35"/>
    </g>
   </g>
   <g id="text_80">
    <!-- 15 -->
    <g transform="translate(666.880958 428.902109)scale(0.12 -0.12)">
     <use xlink:href="#ArialMT-31"/>
     <use x="55.615234" xlink:href="#ArialMT-35"/>
    </g>
   </g>
   <g id="text_81">
    <!-- 11 -->
    <g transform="translate(665.014437 457.195507)scale(0.12 -0.12)">
     <use xlink:href="#ArialMT-31"/>
     <use x="48.240234" xlink:href="#ArialMT-31"/>
    </g>
   </g>
   <g id="text_82">
    <!-- 10 -->
    <g transform="translate(664.547806 485.488904)scale(0.12 -0.12)">
     <use xlink:href="#ArialMT-31"/>
     <use x="55.615234" xlink:href="#ArialMT-30"/>
    </g>
   </g>
   <g id="text_83">
    <!-- 10 -->
    <g transform="translate(664.547806 513.782302)scale(0.12 -0.12)">
     <use xlink:href="#ArialMT-31"/>
     <use x="55.615234" xlink:href="#ArialMT-30"/>
    </g>
   </g>
   <g id="text_84">
    <!-- 9 -->
    <g transform="translate(664.081176 542.0757)scale(0.12 -0.12)">
     <use xlink:href="#ArialMT-39"/>
    </g>
   </g>
   <g id="text_85">
    <!-- 9 -->
    <g transform="translate(664.081176 570.369097)scale(0.12 -0.12)">
     <use xlink:href="#ArialMT-39"/>
    </g>
   </g>
   <g id="text_86">
    <!-- 9 -->
    <g transform="translate(664.081176 598.662495)scale(0.12 -0.12)">
     <use xlink:href="#ArialMT-39"/>
    </g>
   </g>
   <g id="text_87">
    <!-- 9 -->
    <g transform="translate(664.081176 626.955892)scale(0.12 -0.12)">
     <use xlink:href="#ArialMT-39"/>
    </g>
   </g>
   <g id="text_88">
    <!-- 8 -->
    <g transform="translate(663.614546 655.24929)scale(0.12 -0.12)">
     <use xlink:href="#ArialMT-38"/>
    </g>
   </g>
   <g id="text_89">
    <!-- 419 3 16 1 -->
    <g transform="translate(837.240652 385.704)scale(0.12 -0.12)">
     <use xlink:href="#ArialMT-34"/>
     <use x="55.615234" xlink:href="#ArialMT-31"/>
     <use x="111.230469" xlink:href="#ArialMT-39"/>
     <use x="166.845703" xlink:href="#ArialMT-20"/>
     <use x="194.628906" xlink:href="#ArialMT-33"/>
     <use x="250.244141" xlink:href="#ArialMT-20"/>
     <use x="278.027344" xlink:href="#ArialMT-31"/>
     <use x="333.642578" xlink:href="#ArialMT-36"/>
     <use x="389.257812" xlink:href="#ArialMT-20"/>
     <use x="417.041016" xlink:href="#ArialMT-31"/>
    </g>
   </g>
   <g id="text_90">
    <!-- Top 20 modifiers for verb_translate -->
    <g transform="translate(766.265126 64.2025)scale(0.14 -0.14)">
     <use xlink:href="#Arial-BoldMT-54"/>
     <use x="53.708984" xlink:href="#Arial-BoldMT-6f"/>
     <use x="114.792969" xlink:href="#Arial-BoldMT-70"/>
     <use x="175.876953" xlink:href="#Arial-BoldMT-20"/>
     <use x="203.660156" xlink:href="#Arial-BoldMT-32"/>
     <use x="259.275391" xlink:href="#Arial-BoldMT-30"/>
     <use x="314.890625" xlink:href="#Arial-BoldMT-20"/>
     <use x="342.673828" xlink:href="#Arial-BoldMT-6d"/>
     <use x="431.589844" xlink:href="#Arial-BoldMT-6f"/>
     <use x="492.673828" xlink:href="#Arial-BoldMT-64"/>
     <use x="553.757812" xlink:href="#Arial-BoldMT-69"/>
     <use x="581.541016" xlink:href="#Arial-BoldMT-66"/>
     <use x="614.841797" xlink:href="#Arial-BoldMT-69"/>
     <use x="642.625" xlink:href="#Arial-BoldMT-65"/>
     <use x="698.240234" xlink:href="#Arial-BoldMT-72"/>
     <use x="737.15625" xlink:href="#Arial-BoldMT-73"/>
     <use x="792.771484" xlink:href="#Arial-BoldMT-20"/>
     <use x="820.554688" xlink:href="#Arial-BoldMT-66"/>
     <use x="853.855469" xlink:href="#Arial-BoldMT-6f"/>
     <use x="914.939453" xlink:href="#Arial-BoldMT-72"/>
     <use x="953.855469" xlink:href="#Arial-BoldMT-20"/>
     <use x="981.638672" xlink:href="#Arial-BoldMT-76"/>
     <use x="1037.253906" xlink:href="#Arial-BoldMT-65"/>
     <use x="1092.869141" xlink:href="#Arial-BoldMT-72"/>
     <use x="1131.785156" xlink:href="#Arial-BoldMT-62"/>
     <use x="1192.869141" xlink:href="#Arial-BoldMT-5f"/>
     <use x="1248.484375" xlink:href="#Arial-BoldMT-74"/>
     <use x="1281.785156" xlink:href="#Arial-BoldMT-72"/>
     <use x="1320.701172" xlink:href="#Arial-BoldMT-61"/>
     <use x="1376.316406" xlink:href="#Arial-BoldMT-6e"/>
     <use x="1437.400391" xlink:href="#Arial-BoldMT-73"/>
     <use x="1493.015625" xlink:href="#Arial-BoldMT-6c"/>
     <use x="1520.798828" xlink:href="#Arial-BoldMT-61"/>
     <use x="1576.414062" xlink:href="#Arial-BoldMT-74"/>
     <use x="1609.714844" xlink:href="#Arial-BoldMT-65"/>
    </g>
   </g>
  </g>
  <g id="text_91">
   <!-- A comparison of the top 20 modifiers for vwrite - vtranslate -->
   <g transform="translate(333.645625 26.0475)scale(0.16 -0.16)">
    <defs>
     <path d="M 4597 0 
L 3591 0 
L 3191 1041 
L 1359 1041 
L 981 0 
L 0 0 
L 1784 4581 
L 2763 4581 
L 4597 0 
z
M 2894 1813 
L 2263 3513 
L 1644 1813 
L 2894 1813 
z
" id="Arial-BoldMT-41" transform="scale(0.015625)"/>
     <path d="M 359 1222 
L 359 2100 
L 2084 2100 
L 2084 1222 
L 359 1222 
z
" id="Arial-BoldMT-2d" transform="scale(0.015625)"/>
    </defs>
    <use xlink:href="#Arial-BoldMT-41"/>
    <use x="68.466797" xlink:href="#Arial-BoldMT-20"/>
    <use x="96.25" xlink:href="#Arial-BoldMT-63"/>
    <use x="151.865234" xlink:href="#Arial-BoldMT-6f"/>
    <use x="212.949219" xlink:href="#Arial-BoldMT-6d"/>
    <use x="301.865234" xlink:href="#Arial-BoldMT-70"/>
    <use x="362.949219" xlink:href="#Arial-BoldMT-61"/>
    <use x="418.564453" xlink:href="#Arial-BoldMT-72"/>
    <use x="457.480469" xlink:href="#Arial-BoldMT-69"/>
    <use x="485.263672" xlink:href="#Arial-BoldMT-73"/>
    <use x="540.878906" xlink:href="#Arial-BoldMT-6f"/>
    <use x="601.962891" xlink:href="#Arial-BoldMT-6e"/>
    <use x="663.046875" xlink:href="#Arial-BoldMT-20"/>
    <use x="690.830078" xlink:href="#Arial-BoldMT-6f"/>
    <use x="751.914062" xlink:href="#Arial-BoldMT-66"/>
    <use x="785.214844" xlink:href="#Arial-BoldMT-20"/>
    <use x="812.998047" xlink:href="#Arial-BoldMT-74"/>
    <use x="846.298828" xlink:href="#Arial-BoldMT-68"/>
    <use x="907.382812" xlink:href="#Arial-BoldMT-65"/>
    <use x="962.998047" xlink:href="#Arial-BoldMT-20"/>
    <use x="990.78125" xlink:href="#Arial-BoldMT-74"/>
    <use x="1024.082031" xlink:href="#Arial-BoldMT-6f"/>
    <use x="1085.166016" xlink:href="#Arial-BoldMT-70"/>
    <use x="1146.25" xlink:href="#Arial-BoldMT-20"/>
    <use x="1174.033203" xlink:href="#Arial-BoldMT-32"/>
    <use x="1229.648438" xlink:href="#Arial-BoldMT-30"/>
    <use x="1285.263672" xlink:href="#Arial-BoldMT-20"/>
    <use x="1313.046875" xlink:href="#Arial-BoldMT-6d"/>
    <use x="1401.962891" xlink:href="#Arial-BoldMT-6f"/>
    <use x="1463.046875" xlink:href="#Arial-BoldMT-64"/>
    <use x="1524.130859" xlink:href="#Arial-BoldMT-69"/>
    <use x="1551.914062" xlink:href="#Arial-BoldMT-66"/>
    <use x="1585.214844" xlink:href="#Arial-BoldMT-69"/>
    <use x="1612.998047" xlink:href="#Arial-BoldMT-65"/>
    <use x="1668.613281" xlink:href="#Arial-BoldMT-72"/>
    <use x="1707.529297" xlink:href="#Arial-BoldMT-73"/>
    <use x="1763.144531" xlink:href="#Arial-BoldMT-20"/>
    <use x="1790.927734" xlink:href="#Arial-BoldMT-66"/>
    <use x="1824.228516" xlink:href="#Arial-BoldMT-6f"/>
    <use x="1885.3125" xlink:href="#Arial-BoldMT-72"/>
    <use x="1924.228516" xlink:href="#Arial-BoldMT-20"/>
    <use x="1952.011719" xlink:href="#Arial-BoldMT-76"/>
    <use x="2007.626953" xlink:href="#Arial-BoldMT-77"/>
    <use x="2085.410156" xlink:href="#Arial-BoldMT-72"/>
    <use x="2124.326172" xlink:href="#Arial-BoldMT-69"/>
    <use x="2152.109375" xlink:href="#Arial-BoldMT-74"/>
    <use x="2185.410156" xlink:href="#Arial-BoldMT-65"/>
    <use x="2241.025391" xlink:href="#Arial-BoldMT-20"/>
    <use x="2268.808594" xlink:href="#Arial-BoldMT-2d"/>
    <use x="2302.109375" xlink:href="#Arial-BoldMT-20"/>
    <use x="2329.892578" xlink:href="#Arial-BoldMT-76"/>
    <use x="2385.507812" xlink:href="#Arial-BoldMT-74"/>
    <use x="2418.808594" xlink:href="#Arial-BoldMT-72"/>
    <use x="2457.724609" xlink:href="#Arial-BoldMT-61"/>
    <use x="2513.339844" xlink:href="#Arial-BoldMT-6e"/>
    <use x="2574.423828" xlink:href="#Arial-BoldMT-73"/>
    <use x="2630.039062" xlink:href="#Arial-BoldMT-6c"/>
    <use x="2657.822266" xlink:href="#Arial-BoldMT-61"/>
    <use x="2713.4375" xlink:href="#Arial-BoldMT-74"/>
    <use x="2746.738281" xlink:href="#Arial-BoldMT-65"/>
   </g>
  </g>
 </g>
 <defs>
  <clipPath id="p2f68c8b4ef">
   <rect height="587.088" width="455.897872" x="39.419375" y="92.16"/>
  </clipPath>
  <clipPath id="p999d8dfd79">
   <rect height="587.088" width="455.897872" x="654.881503" y="92.16"/>
  </clipPath>
 </defs>
 <defs>
  <pattern height="72" id="h7c8e17e3ba" patternUnits="userSpaceOnUse" width="72" x="0" y="0">
   <rect fill="#12a173" height="73" width="73" x="0" y="0"/>
   <path d="M -36 36 
L 36 -36 
M -24 48 
L 48 -24 
M -12 60 
L 60 -12 
M 0 72 
L 72 0 
M 12 84 
L 84 12 
M 24 96 
L 96 24 
M 36 108 
L 108 36 
" style="fill:#000000;stroke:#000000;stroke-linecap:butt;stroke-linejoin:miter;stroke-width:1.0;"/>
  </pattern>
  <pattern height="72" id="ha1a5f0e17f" patternUnits="userSpaceOnUse" width="72" x="0" y="0">
   <rect fill="#123ea1" height="73" width="73" x="0" y="0"/>
   <path d="M 6 72 
L 6 0 
M 18 72 
L 18 0 
M 30 72 
L 30 0 
M 42 72 
L 42 0 
M 54 72 
L 54 0 
M 66 72 
L 66 0 
" style="fill:#000000;stroke:#000000;stroke-linecap:butt;stroke-linejoin:miter;stroke-width:1.0;"/>
  </pattern>
  <pattern height="72" id="h44a1d55877" patternUnits="userSpaceOnUse" width="72" x="0" y="0">
   <rect fill="#8a300f" height="73" width="73" x="0" y="0"/>
   <path d="M -36 36 
L 36 108 
M -24 24 
L 48 96 
M -12 12 
L 60 84 
M 0 0 
L 72 72 
M 12 -12 
L 84 60 
M 24 -24 
L 96 48 
M 36 -36 
L 108 36 
" style="fill:#000000;stroke:#000000;stroke-linecap:butt;stroke-linejoin:miter;stroke-width:1.0;"/>
  </pattern>
 </defs>
</svg>
