<?xml version="1.0" encoding="utf-8" standalone="no"?>
<!DOCTYPE svg PUBLIC "-//W3C//DTD SVG 1.1//EN"
  "http://www.w3.org/Graphics/SVG/1.1/DTD/svg11.dtd">
<svg height="693.648pt" version="1.1" viewBox="0 0 490.987986 693.648" width="490.987986pt" xmlns="http://www.w3.org/2000/svg" xmlns:xlink="http://www.w3.org/1999/xlink">
 <metadata>
  <rdf:RDF xmlns:cc="http://creativecommons.org/ns#" xmlns:dc="http://purl.org/dc/elements/1.1/" xmlns:rdf="http://www.w3.org/1999/02/22-rdf-syntax-ns#">
   <cc:Work>
    <dc:type rdf:resource="http://purl.org/dc/dcmitype/StillImage"/>
    <dc:date>2021-05-07T16:46:31.805907</dc:date>
    <dc:format>image/svg+xml</dc:format>
    <dc:creator>
     <cc:Agent>
      <dc:title>Matplotlib v3.4.1, https://matplotlib.org/</dc:title>
     </cc:Agent>
    </dc:creator>
   </cc:Work>
  </rdf:RDF>
 </metadata>
 <defs>
  <style type="text/css">*{stroke-linecap:butt;stroke-linejoin:round;}</style>
 </defs>
 <g id="figure_1">
  <g id="patch_1">
   <path d="M 0 693.648 
L 490.987986 693.648 
L 490.987986 0 
L 0 0 
z
" style="fill:#ffffff;"/>
  </g>
  <g id="axes_1">
   <g id="patch_2">
    <path d="M 172.8775 96.07392 
C 159.371084 96.07392 146.022199 98.986972 133.74371 104.613868 
C 121.46522 110.240763 110.543543 118.450244 101.725559 128.680904 
C 92.907575 138.911565 86.398978 150.924757 82.644861 163.898956 
C 78.890743 176.873156 77.978675 190.505718 79.97103 203.864377 
C 81.963384 217.223037 86.813686 229.99618 94.190246 241.310314 
C 101.566805 252.624447 111.297552 262.21565 122.717049 269.428026 
C 134.136545 276.640402 146.97841 281.30571 160.364453 283.104912 
C 173.750495 284.904114 187.368461 283.795242 200.287086 279.854124 
L 172.8775 190.008 
L 172.8775 96.07392 
z
" style="fill:url(#h7f5440c24b);stroke:#000000;stroke-linejoin:miter;stroke-width:2;"/>
   </g>
   <g id="patch_3">
    <path d="M 200.287086 279.854124 
C 221.813722 273.286938 240.279355 259.197055 252.297524 240.168455 
C 264.315692 221.139855 269.103881 198.411511 265.783971 176.151631 
C 262.464062 153.891752 251.252217 133.549704 234.204606 118.856068 
C 217.156994 104.162431 195.383606 96.073924 172.877518 96.07392 
L 172.8775 190.008 
L 200.287086 279.854124 
z
" style="fill:url(#h91327a1150);stroke:#000000;stroke-linejoin:miter;stroke-width:2;"/>
   </g>
   <g id="patch_4">
    <path d="M 172.877518 96.07392 
C 172.877518 96.07392 172.877518 96.07392 172.877518 96.07392 
L 172.8775 190.008 
L 172.877518 96.07392 
z
" style="fill:url(#h755e31a6cb);stroke:#000000;stroke-linejoin:miter;stroke-width:2;"/>
   </g>
   <g id="matplotlib.axis_1"/>
   <g id="matplotlib.axis_2"/>
   <g id="text_1">
    <!-- 952 -->
    <g transform="translate(50.661008 208.352202)scale(0.12 -0.12)">
     <defs>
      <path d="M 350 1059 
L 891 1109 
Q 959 728 1153 556 
Q 1347 384 1650 384 
Q 1909 384 2104 503 
Q 2300 622 2425 820 
Q 2550 1019 2634 1356 
Q 2719 1694 2719 2044 
Q 2719 2081 2716 2156 
Q 2547 1888 2255 1720 
Q 1963 1553 1622 1553 
Q 1053 1553 659 1965 
Q 266 2378 266 3053 
Q 266 3750 677 4175 
Q 1088 4600 1706 4600 
Q 2153 4600 2523 4359 
Q 2894 4119 3086 3673 
Q 3278 3228 3278 2384 
Q 3278 1506 3087 986 
Q 2897 466 2520 194 
Q 2144 -78 1638 -78 
Q 1100 -78 759 220 
Q 419 519 350 1059 
z
M 2653 3081 
Q 2653 3566 2395 3850 
Q 2138 4134 1775 4134 
Q 1400 4134 1122 3828 
Q 844 3522 844 3034 
Q 844 2597 1108 2323 
Q 1372 2050 1759 2050 
Q 2150 2050 2401 2323 
Q 2653 2597 2653 3081 
z
" id="ArialMT-39" transform="scale(0.015625)"/>
      <path d="M 266 1200 
L 856 1250 
Q 922 819 1161 601 
Q 1400 384 1738 384 
Q 2144 384 2425 690 
Q 2706 997 2706 1503 
Q 2706 1984 2436 2262 
Q 2166 2541 1728 2541 
Q 1456 2541 1237 2417 
Q 1019 2294 894 2097 
L 366 2166 
L 809 4519 
L 3088 4519 
L 3088 3981 
L 1259 3981 
L 1013 2750 
Q 1425 3038 1878 3038 
Q 2478 3038 2890 2622 
Q 3303 2206 3303 1553 
Q 3303 931 2941 478 
Q 2500 -78 1738 -78 
Q 1113 -78 717 272 
Q 322 622 266 1200 
z
" id="ArialMT-35" transform="scale(0.015625)"/>
      <path d="M 3222 541 
L 3222 0 
L 194 0 
Q 188 203 259 391 
Q 375 700 629 1000 
Q 884 1300 1366 1694 
Q 2113 2306 2375 2664 
Q 2638 3022 2638 3341 
Q 2638 3675 2398 3904 
Q 2159 4134 1775 4134 
Q 1369 4134 1125 3890 
Q 881 3647 878 3216 
L 300 3275 
Q 359 3922 746 4261 
Q 1134 4600 1788 4600 
Q 2447 4600 2831 4234 
Q 3216 3869 3216 3328 
Q 3216 3053 3103 2787 
Q 2991 2522 2730 2228 
Q 2469 1934 1863 1422 
Q 1356 997 1212 845 
Q 1069 694 975 541 
L 3222 541 
z
" id="ArialMT-32" transform="scale(0.015625)"/>
     </defs>
     <use xlink:href="#ArialMT-39"/>
     <use x="55.615234" xlink:href="#ArialMT-35"/>
     <use x="111.230469" xlink:href="#ArialMT-32"/>
    </g>
   </g>
   <g id="text_2">
    <!-- 54.71 -->
    <g transform="translate(104.62268 200.906983)scale(0.1 -0.1)">
     <defs>
      <path d="M 2069 0 
L 2069 1097 
L 81 1097 
L 81 1613 
L 2172 4581 
L 2631 4581 
L 2631 1613 
L 3250 1613 
L 3250 1097 
L 2631 1097 
L 2631 0 
L 2069 0 
z
M 2069 1613 
L 2069 3678 
L 634 1613 
L 2069 1613 
z
" id="ArialMT-34" transform="scale(0.015625)"/>
      <path d="M 581 0 
L 581 641 
L 1222 641 
L 1222 0 
L 581 0 
z
" id="ArialMT-2e" transform="scale(0.015625)"/>
      <path d="M 303 3981 
L 303 4522 
L 3269 4522 
L 3269 4084 
Q 2831 3619 2401 2847 
Q 1972 2075 1738 1259 
Q 1569 684 1522 0 
L 944 0 
Q 953 541 1156 1306 
Q 1359 2072 1739 2783 
Q 2119 3494 2547 3981 
L 303 3981 
z
" id="ArialMT-37" transform="scale(0.015625)"/>
      <path d="M 2384 0 
L 1822 0 
L 1822 3584 
Q 1619 3391 1289 3197 
Q 959 3003 697 2906 
L 697 3450 
Q 1169 3672 1522 3987 
Q 1875 4303 2022 4600 
L 2384 4600 
L 2384 0 
z
" id="ArialMT-31" transform="scale(0.015625)"/>
     </defs>
     <use xlink:href="#ArialMT-35"/>
     <use x="55.615234" xlink:href="#ArialMT-34"/>
     <use x="111.230469" xlink:href="#ArialMT-2e"/>
     <use x="139.013672" xlink:href="#ArialMT-37"/>
     <use x="194.628906" xlink:href="#ArialMT-31"/>
    </g>
   </g>
   <g id="text_3">
    <!-- 788 -->
    <g transform="translate(275.074619 177.868182)scale(0.12 -0.12)">
     <defs>
      <path d="M 1131 2484 
Q 781 2613 612 2850 
Q 444 3088 444 3419 
Q 444 3919 803 4259 
Q 1163 4600 1759 4600 
Q 2359 4600 2725 4251 
Q 3091 3903 3091 3403 
Q 3091 3084 2923 2848 
Q 2756 2613 2416 2484 
Q 2838 2347 3058 2040 
Q 3278 1734 3278 1309 
Q 3278 722 2862 322 
Q 2447 -78 1769 -78 
Q 1091 -78 675 323 
Q 259 725 259 1325 
Q 259 1772 486 2073 
Q 713 2375 1131 2484 
z
M 1019 3438 
Q 1019 3113 1228 2906 
Q 1438 2700 1772 2700 
Q 2097 2700 2305 2904 
Q 2513 3109 2513 3406 
Q 2513 3716 2298 3927 
Q 2084 4138 1766 4138 
Q 1444 4138 1231 3931 
Q 1019 3725 1019 3438 
z
M 838 1322 
Q 838 1081 952 856 
Q 1066 631 1291 507 
Q 1516 384 1775 384 
Q 2178 384 2440 643 
Q 2703 903 2703 1303 
Q 2703 1709 2433 1975 
Q 2163 2241 1756 2241 
Q 1359 2241 1098 1978 
Q 838 1716 838 1322 
z
" id="ArialMT-38" transform="scale(0.015625)"/>
     </defs>
     <use xlink:href="#ArialMT-37"/>
     <use x="55.615234" xlink:href="#ArialMT-38"/>
     <use x="111.230469" xlink:href="#ArialMT-38"/>
    </g>
   </g>
   <g id="text_4">
    <!-- 45.29 -->
    <g transform="translate(216.110445 184.279335)scale(0.1 -0.1)">
     <use xlink:href="#ArialMT-34"/>
     <use x="55.615234" xlink:href="#ArialMT-35"/>
     <use x="111.230469" xlink:href="#ArialMT-2e"/>
     <use x="139.013672" xlink:href="#ArialMT-32"/>
     <use x="194.628906" xlink:href="#ArialMT-39"/>
    </g>
   </g>
   <g id="text_5">
    <!-- 0.0 -->
    <g transform="translate(172.877519 89.7827)scale(0.12 -0.12)">
     <defs>
      <path d="M 266 2259 
Q 266 3072 433 3567 
Q 600 4063 929 4331 
Q 1259 4600 1759 4600 
Q 2128 4600 2406 4451 
Q 2684 4303 2865 4023 
Q 3047 3744 3150 3342 
Q 3253 2941 3253 2259 
Q 3253 1453 3087 958 
Q 2922 463 2592 192 
Q 2263 -78 1759 -78 
Q 1097 -78 719 397 
Q 266 969 266 2259 
z
M 844 2259 
Q 844 1131 1108 757 
Q 1372 384 1759 384 
Q 2147 384 2411 759 
Q 2675 1134 2675 2259 
Q 2675 3391 2411 3762 
Q 2147 4134 1753 4134 
Q 1366 4134 1134 3806 
Q 844 3388 844 2259 
z
" id="ArialMT-30" transform="scale(0.015625)"/>
     </defs>
     <use xlink:href="#ArialMT-30"/>
     <use x="55.615234" xlink:href="#ArialMT-2e"/>
     <use x="83.398438" xlink:href="#ArialMT-30"/>
    </g>
   </g>
   <g id="text_6">
    <!-- 0.00 -->
    <g transform="translate(163.147042 136.232708)scale(0.1 -0.1)">
     <use xlink:href="#ArialMT-30"/>
     <use x="55.615234" xlink:href="#ArialMT-2e"/>
     <use x="83.398438" xlink:href="#ArialMT-30"/>
     <use x="139.013672" xlink:href="#ArialMT-30"/>
    </g>
   </g>
  </g>
  <g id="axes_2">
   <g id="patch_5">
    <path d="M 373.7575 96.07392 
C 357.269852 96.07392 341.069181 100.414877 326.790459 108.658701 
C 312.511737 116.902525 300.652022 128.76224 292.408199 143.040963 
C 284.164375 157.319685 279.823419 173.520356 279.82342 190.008004 
C 279.823421 206.495652 284.164379 222.696324 292.408203 236.975045 
L 373.7575 190.008 
L 373.7575 96.07392 
z
" style="fill:url(#h7f5440c24b);stroke:#000000;stroke-linejoin:miter;stroke-width:2;"/>
   </g>
   <g id="patch_6">
    <path d="M 292.408203 236.975045 
C 300.652028 251.253767 312.511744 263.11348 326.790466 271.357303 
C 341.069189 279.601126 357.269861 283.942082 373.757509 283.94208 
C 390.245157 283.942078 406.445828 279.60112 420.724549 271.357294 
C 435.00327 263.113469 446.862983 251.253753 455.106805 236.97503 
C 463.350628 222.696307 467.691582 206.495635 467.69158 190.007987 
C 467.691578 173.520339 463.350618 157.319668 455.106792 143.040947 
C 446.862966 128.762227 435.003249 116.902514 420.724526 108.658692 
C 406.445803 100.414871 390.24513 96.073917 373.757482 96.07392 
L 373.7575 190.008 
L 292.408203 236.975045 
z
" style="fill:url(#h91327a1150);stroke:#000000;stroke-linejoin:miter;stroke-width:2;"/>
   </g>
   <g id="patch_7">
    <path d="M 373.757482 96.07392 
C 373.757482 96.07392 373.757482 96.07392 373.757482 96.07392 
L 373.7575 190.008 
L 373.757482 96.07392 
z
" style="fill:url(#h755e31a6cb);stroke:#000000;stroke-linejoin:miter;stroke-width:2;"/>
   </g>
   <g id="matplotlib.axis_3"/>
   <g id="matplotlib.axis_4"/>
   <g id="text_7">
    <!-- 25 -->
    <g transform="translate(270.927019 141.446446)scale(0.12 -0.12)">
     <use xlink:href="#ArialMT-32"/>
     <use x="55.615234" xlink:href="#ArialMT-35"/>
    </g>
   </g>
   <g id="text_8">
    <!-- 33.33 -->
    <g transform="translate(312.436982 164.412934)scale(0.1 -0.1)">
     <defs>
      <path d="M 269 1209 
L 831 1284 
Q 928 806 1161 595 
Q 1394 384 1728 384 
Q 2125 384 2398 659 
Q 2672 934 2672 1341 
Q 2672 1728 2419 1979 
Q 2166 2231 1775 2231 
Q 1616 2231 1378 2169 
L 1441 2663 
Q 1497 2656 1531 2656 
Q 1891 2656 2178 2843 
Q 2466 3031 2466 3422 
Q 2466 3731 2256 3934 
Q 2047 4138 1716 4138 
Q 1388 4138 1169 3931 
Q 950 3725 888 3313 
L 325 3413 
Q 428 3978 793 4289 
Q 1159 4600 1703 4600 
Q 2078 4600 2393 4439 
Q 2709 4278 2876 4000 
Q 3044 3722 3044 3409 
Q 3044 3113 2884 2869 
Q 2725 2625 2413 2481 
Q 2819 2388 3044 2092 
Q 3269 1797 3269 1353 
Q 3269 753 2831 336 
Q 2394 -81 1725 -81 
Q 1122 -81 723 278 
Q 325 638 269 1209 
z
" id="ArialMT-33" transform="scale(0.015625)"/>
     </defs>
     <use xlink:href="#ArialMT-33"/>
     <use x="55.615234" xlink:href="#ArialMT-33"/>
     <use x="111.230469" xlink:href="#ArialMT-2e"/>
     <use x="139.013672" xlink:href="#ArialMT-33"/>
     <use x="194.628906" xlink:href="#ArialMT-33"/>
    </g>
   </g>
   <g id="text_9">
    <!-- 50 -->
    <g transform="translate(463.241736 244.77392)scale(0.12 -0.12)">
     <use xlink:href="#ArialMT-35"/>
     <use x="55.615234" xlink:href="#ArialMT-30"/>
    </g>
   </g>
   <g id="text_10">
    <!-- 66.67 -->
    <g transform="translate(410.056146 220.773374)scale(0.1 -0.1)">
     <defs>
      <path d="M 3184 3459 
L 2625 3416 
Q 2550 3747 2413 3897 
Q 2184 4138 1850 4138 
Q 1581 4138 1378 3988 
Q 1113 3794 959 3422 
Q 806 3050 800 2363 
Q 1003 2672 1297 2822 
Q 1591 2972 1913 2972 
Q 2475 2972 2870 2558 
Q 3266 2144 3266 1488 
Q 3266 1056 3080 686 
Q 2894 316 2569 119 
Q 2244 -78 1831 -78 
Q 1128 -78 684 439 
Q 241 956 241 2144 
Q 241 3472 731 4075 
Q 1159 4600 1884 4600 
Q 2425 4600 2770 4297 
Q 3116 3994 3184 3459 
z
M 888 1484 
Q 888 1194 1011 928 
Q 1134 663 1356 523 
Q 1578 384 1822 384 
Q 2178 384 2434 671 
Q 2691 959 2691 1453 
Q 2691 1928 2437 2201 
Q 2184 2475 1800 2475 
Q 1419 2475 1153 2201 
Q 888 1928 888 1484 
z
" id="ArialMT-36" transform="scale(0.015625)"/>
     </defs>
     <use xlink:href="#ArialMT-36"/>
     <use x="55.615234" xlink:href="#ArialMT-36"/>
     <use x="111.230469" xlink:href="#ArialMT-2e"/>
     <use x="139.013672" xlink:href="#ArialMT-36"/>
     <use x="194.628906" xlink:href="#ArialMT-37"/>
    </g>
   </g>
   <g id="text_11">
    <!-- 0.0 -->
    <g transform="translate(357.077481 89.7827)scale(0.12 -0.12)">
     <use xlink:href="#ArialMT-30"/>
     <use x="55.615234" xlink:href="#ArialMT-2e"/>
     <use x="83.398438" xlink:href="#ArialMT-30"/>
    </g>
   </g>
   <g id="text_12">
    <!-- 0.00 -->
    <g transform="translate(364.027021 136.232708)scale(0.1 -0.1)">
     <use xlink:href="#ArialMT-30"/>
     <use x="55.615234" xlink:href="#ArialMT-2e"/>
     <use x="83.398438" xlink:href="#ArialMT-30"/>
     <use x="139.013672" xlink:href="#ArialMT-30"/>
    </g>
   </g>
  </g>
  <g id="axes_3">
   <g id="patch_8">
    <path d="M 172.8775 291.76992 
C 148.991162 291.76992 125.981681 300.880945 108.570429 317.233481 
C 91.159177 333.586017 80.624472 355.979475 79.127957 379.818888 
C 77.631442 403.658301 85.282989 427.193398 100.512559 445.594956 
C 115.742128 463.996515 137.431579 475.913507 161.130399 478.900658 
L 172.8775 385.704 
L 172.8775 291.76992 
z
" style="fill:url(#h7f5440c24b);stroke:#000000;stroke-linejoin:miter;stroke-width:2;"/>
   </g>
   <g id="patch_9">
    <path d="M 161.130399 478.900658 
C 173.860619 480.505256 186.785651 479.484638 199.106257 475.901914 
C 211.426863 472.319191 222.883745 466.249764 232.768453 458.068944 
C 242.65316 449.888125 250.757659 439.768086 256.580799 428.334613 
C 262.403938 416.901141 265.823163 404.394863 266.627043 391.589121 
C 267.430922 378.783379 265.602537 365.947682 261.254949 353.875743 
C 256.90736 341.803804 250.132067 330.749687 241.348028 321.396938 
C 232.563989 312.04419 221.956073 304.589647 210.180234 299.494271 
C 198.404395 294.398895 185.708466 291.769922 172.877518 291.76992 
L 172.8775 385.704 
L 161.130399 478.900658 
z
" style="fill:url(#h91327a1150);stroke:#000000;stroke-linejoin:miter;stroke-width:2;"/>
   </g>
   <g id="patch_10">
    <path d="M 172.877518 291.76992 
C 172.877518 291.76992 172.877518 291.76992 172.877518 291.76992 
L 172.8775 385.704 
L 172.877518 291.76992 
z
" style="fill:url(#h755e31a6cb);stroke:#000000;stroke-linejoin:miter;stroke-width:2;"/>
   </g>
   <g id="matplotlib.axis_5"/>
   <g id="matplotlib.axis_6"/>
   <g id="text_13">
    <!-- 3897 -->
    <g transform="translate(43.060503 382.332564)scale(0.12 -0.12)">
     <use xlink:href="#ArialMT-33"/>
     <use x="55.615234" xlink:href="#ArialMT-38"/>
     <use x="111.230469" xlink:href="#ArialMT-39"/>
     <use x="166.845703" xlink:href="#ArialMT-37"/>
    </g>
   </g>
   <g id="text_14">
    <!-- 48.00 -->
    <g transform="translate(104.116837 384.758089)scale(0.1 -0.1)">
     <use xlink:href="#ArialMT-34"/>
     <use x="55.615234" xlink:href="#ArialMT-38"/>
     <use x="111.230469" xlink:href="#ArialMT-2e"/>
     <use x="139.013672" xlink:href="#ArialMT-30"/>
     <use x="194.628906" xlink:href="#ArialMT-30"/>
    </g>
   </g>
   <g id="text_15">
    <!-- 4221 -->
    <g transform="translate(276.001997 395.27982)scale(0.12 -0.12)">
     <use xlink:href="#ArialMT-34"/>
     <use x="55.615234" xlink:href="#ArialMT-32"/>
     <use x="111.230469" xlink:href="#ArialMT-32"/>
     <use x="166.845703" xlink:href="#ArialMT-31"/>
    </g>
   </g>
   <g id="text_16">
    <!-- 52.00 -->
    <g transform="translate(216.616288 391.820229)scale(0.1 -0.1)">
     <use xlink:href="#ArialMT-35"/>
     <use x="55.615234" xlink:href="#ArialMT-32"/>
     <use x="111.230469" xlink:href="#ArialMT-2e"/>
     <use x="139.013672" xlink:href="#ArialMT-30"/>
     <use x="194.628906" xlink:href="#ArialMT-30"/>
    </g>
   </g>
   <g id="text_17">
    <!-- 0.0 -->
    <g transform="translate(172.877519 285.4787)scale(0.12 -0.12)">
     <use xlink:href="#ArialMT-30"/>
     <use x="55.615234" xlink:href="#ArialMT-2e"/>
     <use x="83.398438" xlink:href="#ArialMT-30"/>
    </g>
   </g>
   <g id="text_18">
    <!-- 0.00 -->
    <g transform="translate(163.147042 331.928708)scale(0.1 -0.1)">
     <use xlink:href="#ArialMT-30"/>
     <use x="55.615234" xlink:href="#ArialMT-2e"/>
     <use x="83.398438" xlink:href="#ArialMT-30"/>
     <use x="139.013672" xlink:href="#ArialMT-30"/>
    </g>
   </g>
  </g>
  <g id="axes_4">
   <g id="patch_11">
    <path d="M 373.7575 291.76992 
C 356.734879 291.76992 340.028176 296.397148 325.431145 305.154792 
C 310.834115 313.912436 298.888561 326.475434 290.877047 341.49493 
C 282.865532 356.514427 279.085424 373.432935 279.942582 390.433962 
C 280.79974 407.434989 286.262349 423.887498 295.743903 438.025029 
L 373.7575 385.704 
L 373.7575 291.76992 
z
" style="fill:url(#h7f5440c24b);stroke:#000000;stroke-linejoin:miter;stroke-width:2;"/>
   </g>
   <g id="patch_12">
    <path d="M 295.743903 438.025029 
C 302.796111 448.540268 311.902046 457.521951 322.513177 464.429032 
C 333.124308 471.336114 345.023203 476.027061 357.493086 478.219297 
C 369.962969 480.411533 382.74832 480.060136 395.078965 477.186274 
C 407.40961 474.312413 419.032881 468.974974 429.248607 461.49548 
C 439.464332 454.015986 448.063182 444.547699 454.527171 433.660976 
C 460.991161 422.774254 465.187836 410.692176 466.864394 398.142553 
C 468.540953 385.59293 467.66304 372.832917 464.283541 360.63116 
C 460.904042 348.429403 455.092205 337.03593 447.198129 327.137069 
L 373.7575 385.704 
L 295.743903 438.025029 
z
" style="fill:url(#h91327a1150);stroke:#000000;stroke-linejoin:miter;stroke-width:2;"/>
   </g>
   <g id="patch_13">
    <path d="M 447.198129 327.137069 
C 438.399936 316.104481 427.227738 307.194948 414.513979 301.072323 
C 401.800221 294.949698 387.868716 291.769921 373.757509 291.76992 
L 373.7575 385.704 
L 447.198129 327.137069 
z
" style="fill:url(#h755e31a6cb);stroke:#000000;stroke-linejoin:miter;stroke-width:2;"/>
   </g>
   <g id="matplotlib.axis_7"/>
   <g id="matplotlib.axis_8"/>
   <g id="text_19">
    <!-- 236 -->
    <g transform="translate(262.569626 340.176211)scale(0.12 -0.12)">
     <use xlink:href="#ArialMT-32"/>
     <use x="55.615234" xlink:href="#ArialMT-33"/>
     <use x="111.230469" xlink:href="#ArialMT-36"/>
    </g>
   </g>
   <g id="text_20">
    <!-- 34.40 -->
    <g transform="translate(311.518291 361.763714)scale(0.1 -0.1)">
     <use xlink:href="#ArialMT-33"/>
     <use x="55.615234" xlink:href="#ArialMT-34"/>
     <use x="111.230469" xlink:href="#ArialMT-2e"/>
     <use x="139.013672" xlink:href="#ArialMT-34"/>
     <use x="194.628906" xlink:href="#ArialMT-30"/>
    </g>
   </g>
   <g id="text_21">
    <!-- 352 -->
    <g transform="translate(434.797717 472.176816)scale(0.12 -0.12)">
     <use xlink:href="#ArialMT-33"/>
     <use x="55.615234" xlink:href="#ArialMT-35"/>
     <use x="111.230469" xlink:href="#ArialMT-32"/>
    </g>
   </g>
   <g id="text_22">
    <!-- 51.31 -->
    <g transform="translate(394.541226 433.764044)scale(0.1 -0.1)">
     <use xlink:href="#ArialMT-35"/>
     <use x="55.615234" xlink:href="#ArialMT-31"/>
     <use x="111.230469" xlink:href="#ArialMT-2e"/>
     <use x="139.013672" xlink:href="#ArialMT-33"/>
     <use x="194.628906" xlink:href="#ArialMT-31"/>
    </g>
   </g>
   <g id="text_23">
    <!-- 98.0 -->
    <g transform="translate(418.589627 295.711343)scale(0.12 -0.12)">
     <use xlink:href="#ArialMT-39"/>
     <use x="55.615234" xlink:href="#ArialMT-38"/>
     <use x="111.230469" xlink:href="#ArialMT-2e"/>
     <use x="139.013672" xlink:href="#ArialMT-30"/>
    </g>
   </g>
   <g id="text_24">
    <!-- 14.29 -->
    <g transform="translate(385.70045 337.51015)scale(0.1 -0.1)">
     <use xlink:href="#ArialMT-31"/>
     <use x="55.615234" xlink:href="#ArialMT-34"/>
     <use x="111.230469" xlink:href="#ArialMT-2e"/>
     <use x="139.013672" xlink:href="#ArialMT-32"/>
     <use x="194.628906" xlink:href="#ArialMT-39"/>
    </g>
   </g>
  </g>
  <g id="axes_5">
   <g id="patch_14">
    <path d="M 172.8775 487.46592 
C 160.399331 487.46592 148.045331 489.952313 136.538702 494.779546 
C 125.032072 499.606778 114.601815 506.67878 105.858518 515.581557 
C 97.11522 524.484334 90.232888 535.040706 85.614413 546.632702 
C 80.995938 558.224699 78.733235 570.62162 78.958764 583.09775 
C 79.184292 595.573881 81.893563 607.880924 86.927977 619.298428 
C 91.96239 630.715931 99.221752 641.016666 108.281099 649.597628 
C 117.340447 658.17859 128.019485 664.869003 139.693061 669.277212 
C 151.366638 673.685421 163.80243 675.723694 176.272446 675.27271 
L 172.8775 581.4 
L 172.8775 487.46592 
z
" style="fill:url(#h7f5440c24b);stroke:#000000;stroke-linejoin:miter;stroke-width:2;"/>
   </g>
   <g id="patch_15">
    <path d="M 176.272446 675.27271 
C 200.12699 674.410001 222.778199 664.486191 239.584145 647.534975 
C 256.39009 630.583759 266.118582 607.847978 266.775952 583.986893 
C 267.433323 560.125808 258.971375 536.888882 243.124221 519.038076 
C 227.277068 501.187271 205.206602 490.031384 181.435741 487.856599 
L 172.8775 581.4 
L 176.272446 675.27271 
z
" style="fill:url(#h91327a1150);stroke:#000000;stroke-linejoin:miter;stroke-width:2;"/>
   </g>
   <g id="patch_16">
    <path d="M 181.435741 487.856599 
C 180.013269 487.726458 178.588014 487.62878 177.161088 487.563641 
C 175.734161 487.498502 174.305935 487.46592 172.877522 487.46592 
L 172.8775 581.4 
L 181.435741 487.856599 
z
" style="fill:url(#h755e31a6cb);stroke:#000000;stroke-linejoin:miter;stroke-width:2;"/>
   </g>
   <g id="matplotlib.axis_9"/>
   <g id="matplotlib.axis_10"/>
   <g id="text_25">
    <!-- 1846 -->
    <g transform="translate(42.87439 586.369713)scale(0.12 -0.12)">
     <use xlink:href="#ArialMT-31"/>
     <use x="55.615234" xlink:href="#ArialMT-38"/>
     <use x="111.230469" xlink:href="#ArialMT-34"/>
     <use x="166.845703" xlink:href="#ArialMT-36"/>
    </g>
   </g>
   <g id="text_26">
    <!-- 50.58 -->
    <g transform="translate(104.015321 585.003806)scale(0.1 -0.1)">
     <use xlink:href="#ArialMT-35"/>
     <use x="55.615234" xlink:href="#ArialMT-30"/>
     <use x="111.230469" xlink:href="#ArialMT-2e"/>
     <use x="139.013672" xlink:href="#ArialMT-35"/>
     <use x="194.628906" xlink:href="#ArialMT-38"/>
    </g>
   </g>
   <g id="text_27">
    <!-- 1751 -->
    <g transform="translate(276.165798 587.34777)scale(0.12 -0.12)">
     <use xlink:href="#ArialMT-31"/>
     <use x="55.615234" xlink:href="#ArialMT-37"/>
     <use x="111.230469" xlink:href="#ArialMT-35"/>
     <use x="166.845703" xlink:href="#ArialMT-31"/>
    </g>
   </g>
   <g id="text_28">
    <!-- 47.97 -->
    <g transform="translate(216.705634 585.537292)scale(0.1 -0.1)">
     <use xlink:href="#ArialMT-34"/>
     <use x="55.615234" xlink:href="#ArialMT-37"/>
     <use x="111.230469" xlink:href="#ArialMT-2e"/>
     <use x="139.013672" xlink:href="#ArialMT-39"/>
     <use x="194.628906" xlink:href="#ArialMT-37"/>
    </g>
   </g>
   <g id="text_29">
    <!-- 53.0 -->
    <g transform="translate(177.589446 481.282193)scale(0.12 -0.12)">
     <use xlink:href="#ArialMT-35"/>
     <use x="55.615234" xlink:href="#ArialMT-33"/>
     <use x="111.230469" xlink:href="#ArialMT-2e"/>
     <use x="139.013672" xlink:href="#ArialMT-30"/>
    </g>
   </g>
   <g id="text_30">
    <!-- 1.45 -->
    <g transform="translate(165.717184 527.683341)scale(0.1 -0.1)">
     <use xlink:href="#ArialMT-31"/>
     <use x="55.615234" xlink:href="#ArialMT-2e"/>
     <use x="83.398438" xlink:href="#ArialMT-34"/>
     <use x="139.013672" xlink:href="#ArialMT-35"/>
    </g>
   </g>
  </g>
  <g id="axes_6">
   <g id="patch_17">
    <path d="M 373.7575 487.46592 
C 358.065063 487.46592 342.619947 491.39824 328.838063 498.90239 
C 315.05618 506.40654 303.371949 517.245981 294.856506 530.427022 
C 286.341063 543.608062 281.262826 558.715221 280.087334 574.363569 
C 278.911842 590.011917 281.676148 605.708202 288.126839 620.013487 
L 373.7575 581.4 
L 373.7575 487.46592 
z
" style="fill:url(#h7f5440c24b);stroke:#000000;stroke-linejoin:miter;stroke-width:2;"/>
   </g>
   <g id="patch_18">
    <path d="M 288.126839 620.013487 
C 294.822648 634.862353 305.267043 647.717353 318.430528 657.31138 
C 331.594014 666.905407 347.029393 672.912526 363.215213 674.740621 
C 379.401033 676.568717 395.78742 674.155683 410.759181 667.739371 
C 425.730943 661.323059 438.779449 651.121447 448.618521 638.1401 
C 458.457592 625.158753 464.75297 609.83868 466.884124 593.689969 
C 469.015278 577.541257 466.909807 561.11252 460.775246 546.023125 
C 454.640685 530.933729 444.68544 517.6963 431.890793 507.615641 
C 419.096145 497.534981 403.896762 490.953557 387.790832 488.520094 
L 373.7575 581.4 
L 288.126839 620.013487 
z
" style="fill:url(#h91327a1150);stroke:#000000;stroke-linejoin:miter;stroke-width:2;"/>
   </g>
   <g id="patch_19">
    <path d="M 387.790832 488.520094 
C 385.469233 488.169321 383.135299 487.905716 380.793946 487.729835 
C 378.452594 487.553954 376.105471 487.465921 373.757522 487.46592 
L 373.7575 581.4 
L 387.790832 488.520094 
z
" style="fill:url(#h755e31a6cb);stroke:#000000;stroke-linejoin:miter;stroke-width:2;"/>
   </g>
   <g id="matplotlib.axis_11"/>
   <g id="matplotlib.axis_12"/>
   <g id="text_31">
    <!-- 133 -->
    <g transform="translate(266.947032 528.431911)scale(0.12 -0.12)">
     <use xlink:href="#ArialMT-31"/>
     <use x="55.615234" xlink:href="#ArialMT-33"/>
     <use x="111.230469" xlink:href="#ArialMT-33"/>
    </g>
   </g>
   <g id="text_32">
    <!-- 31.74 -->
    <g transform="translate(313.905966 553.401369)scale(0.1 -0.1)">
     <use xlink:href="#ArialMT-33"/>
     <use x="55.615234" xlink:href="#ArialMT-31"/>
     <use x="111.230469" xlink:href="#ArialMT-2e"/>
     <use x="139.013672" xlink:href="#ArialMT-37"/>
     <use x="194.628906" xlink:href="#ArialMT-34"/>
    </g>
   </g>
   <g id="text_33">
    <!-- 276 -->
    <g transform="translate(456.104623 646.916298)scale(0.12 -0.12)">
     <use xlink:href="#ArialMT-32"/>
     <use x="55.615234" xlink:href="#ArialMT-37"/>
     <use x="111.230469" xlink:href="#ArialMT-36"/>
    </g>
   </g>
   <g id="text_34">
    <!-- 65.87 -->
    <g transform="translate(406.163175 618.029216)scale(0.1 -0.1)">
     <use xlink:href="#ArialMT-36"/>
     <use x="55.615234" xlink:href="#ArialMT-35"/>
     <use x="111.230469" xlink:href="#ArialMT-2e"/>
     <use x="139.013672" xlink:href="#ArialMT-38"/>
     <use x="194.628906" xlink:href="#ArialMT-37"/>
    </g>
   </g>
   <g id="text_35">
    <!-- 10.0 -->
    <g transform="translate(381.497591 481.465006)scale(0.12 -0.12)">
     <use xlink:href="#ArialMT-31"/>
     <use x="55.615234" xlink:href="#ArialMT-30"/>
     <use x="111.230469" xlink:href="#ArialMT-2e"/>
     <use x="139.013672" xlink:href="#ArialMT-30"/>
    </g>
   </g>
   <g id="text_36">
    <!-- 2.39 -->
    <g transform="translate(368.248899 527.783057)scale(0.1 -0.1)">
     <use xlink:href="#ArialMT-32"/>
     <use x="55.615234" xlink:href="#ArialMT-2e"/>
     <use x="83.398438" xlink:href="#ArialMT-33"/>
     <use x="139.013672" xlink:href="#ArialMT-39"/>
    </g>
   </g>
  </g>
  <g id="text_37">
   <!-- A comparison of the valence of the top twenty -->
   <g transform="translate(14.4 26.0475)scale(0.16 -0.16)">
    <defs>
     <path d="M 4597 0 
L 3591 0 
L 3191 1041 
L 1359 1041 
L 981 0 
L 0 0 
L 1784 4581 
L 2763 4581 
L 4597 0 
z
M 2894 1813 
L 2263 3513 
L 1644 1813 
L 2894 1813 
z
" id="Arial-BoldMT-41" transform="scale(0.015625)"/>
     <path id="Arial-BoldMT-20" transform="scale(0.015625)"/>
     <path d="M 3353 2338 
L 2488 2181 
Q 2444 2441 2289 2572 
Q 2134 2703 1888 2703 
Q 1559 2703 1364 2476 
Q 1169 2250 1169 1719 
Q 1169 1128 1367 884 
Q 1566 641 1900 641 
Q 2150 641 2309 783 
Q 2469 925 2534 1272 
L 3397 1125 
Q 3263 531 2881 228 
Q 2500 -75 1859 -75 
Q 1131 -75 698 384 
Q 266 844 266 1656 
Q 266 2478 700 2936 
Q 1134 3394 1875 3394 
Q 2481 3394 2839 3133 
Q 3197 2872 3353 2338 
z
" id="Arial-BoldMT-63" transform="scale(0.015625)"/>
     <path d="M 256 1706 
Q 256 2144 472 2553 
Q 688 2963 1083 3178 
Q 1478 3394 1966 3394 
Q 2719 3394 3200 2905 
Q 3681 2416 3681 1669 
Q 3681 916 3195 420 
Q 2709 -75 1972 -75 
Q 1516 -75 1102 131 
Q 688 338 472 736 
Q 256 1134 256 1706 
z
M 1156 1659 
Q 1156 1166 1390 903 
Q 1625 641 1969 641 
Q 2313 641 2545 903 
Q 2778 1166 2778 1666 
Q 2778 2153 2545 2415 
Q 2313 2678 1969 2678 
Q 1625 2678 1390 2415 
Q 1156 2153 1156 1659 
z
" id="Arial-BoldMT-6f" transform="scale(0.015625)"/>
     <path d="M 394 3319 
L 1203 3319 
L 1203 2866 
Q 1638 3394 2238 3394 
Q 2556 3394 2790 3262 
Q 3025 3131 3175 2866 
Q 3394 3131 3647 3262 
Q 3900 3394 4188 3394 
Q 4553 3394 4806 3245 
Q 5059 3097 5184 2809 
Q 5275 2597 5275 2122 
L 5275 0 
L 4397 0 
L 4397 1897 
Q 4397 2391 4306 2534 
Q 4184 2722 3931 2722 
Q 3747 2722 3584 2609 
Q 3422 2497 3350 2280 
Q 3278 2063 3278 1594 
L 3278 0 
L 2400 0 
L 2400 1819 
Q 2400 2303 2353 2443 
Q 2306 2584 2207 2653 
Q 2109 2722 1941 2722 
Q 1738 2722 1575 2612 
Q 1413 2503 1342 2297 
Q 1272 2091 1272 1613 
L 1272 0 
L 394 0 
L 394 3319 
z
" id="Arial-BoldMT-6d" transform="scale(0.015625)"/>
     <path d="M 434 3319 
L 1253 3319 
L 1253 2831 
Q 1413 3081 1684 3237 
Q 1956 3394 2288 3394 
Q 2866 3394 3269 2941 
Q 3672 2488 3672 1678 
Q 3672 847 3265 386 
Q 2859 -75 2281 -75 
Q 2006 -75 1782 34 
Q 1559 144 1313 409 
L 1313 -1263 
L 434 -1263 
L 434 3319 
z
M 1303 1716 
Q 1303 1156 1525 889 
Q 1747 622 2066 622 
Q 2372 622 2575 867 
Q 2778 1113 2778 1672 
Q 2778 2194 2568 2447 
Q 2359 2700 2050 2700 
Q 1728 2700 1515 2451 
Q 1303 2203 1303 1716 
z
" id="Arial-BoldMT-70" transform="scale(0.015625)"/>
     <path d="M 1116 2306 
L 319 2450 
Q 453 2931 781 3162 
Q 1109 3394 1756 3394 
Q 2344 3394 2631 3255 
Q 2919 3116 3036 2902 
Q 3153 2688 3153 2116 
L 3144 1091 
Q 3144 653 3186 445 
Q 3228 238 3344 0 
L 2475 0 
Q 2441 88 2391 259 
Q 2369 338 2359 363 
Q 2134 144 1878 34 
Q 1622 -75 1331 -75 
Q 819 -75 523 203 
Q 228 481 228 906 
Q 228 1188 362 1408 
Q 497 1628 739 1745 
Q 981 1863 1438 1950 
Q 2053 2066 2291 2166 
L 2291 2253 
Q 2291 2506 2166 2614 
Q 2041 2722 1694 2722 
Q 1459 2722 1328 2630 
Q 1197 2538 1116 2306 
z
M 2291 1594 
Q 2122 1538 1756 1459 
Q 1391 1381 1278 1306 
Q 1106 1184 1106 997 
Q 1106 813 1243 678 
Q 1381 544 1594 544 
Q 1831 544 2047 700 
Q 2206 819 2256 991 
Q 2291 1103 2291 1419 
L 2291 1594 
z
" id="Arial-BoldMT-61" transform="scale(0.015625)"/>
     <path d="M 1300 0 
L 422 0 
L 422 3319 
L 1238 3319 
L 1238 2847 
Q 1447 3181 1614 3287 
Q 1781 3394 1994 3394 
Q 2294 3394 2572 3228 
L 2300 2463 
Q 2078 2606 1888 2606 
Q 1703 2606 1575 2504 
Q 1447 2403 1373 2137 
Q 1300 1872 1300 1025 
L 1300 0 
z
" id="Arial-BoldMT-72" transform="scale(0.015625)"/>
     <path d="M 459 3769 
L 459 4581 
L 1338 4581 
L 1338 3769 
L 459 3769 
z
M 459 0 
L 459 3319 
L 1338 3319 
L 1338 0 
L 459 0 
z
" id="Arial-BoldMT-69" transform="scale(0.015625)"/>
     <path d="M 150 947 
L 1031 1081 
Q 1088 825 1259 692 
Q 1431 559 1741 559 
Q 2081 559 2253 684 
Q 2369 772 2369 919 
Q 2369 1019 2306 1084 
Q 2241 1147 2013 1200 
Q 950 1434 666 1628 
Q 272 1897 272 2375 
Q 272 2806 612 3100 
Q 953 3394 1669 3394 
Q 2350 3394 2681 3172 
Q 3013 2950 3138 2516 
L 2309 2363 
Q 2256 2556 2107 2659 
Q 1959 2763 1684 2763 
Q 1338 2763 1188 2666 
Q 1088 2597 1088 2488 
Q 1088 2394 1175 2328 
Q 1294 2241 1995 2081 
Q 2697 1922 2975 1691 
Q 3250 1456 3250 1038 
Q 3250 581 2869 253 
Q 2488 -75 1741 -75 
Q 1063 -75 667 200 
Q 272 475 150 947 
z
" id="Arial-BoldMT-73" transform="scale(0.015625)"/>
     <path d="M 3478 0 
L 2600 0 
L 2600 1694 
Q 2600 2231 2544 2389 
Q 2488 2547 2361 2634 
Q 2234 2722 2056 2722 
Q 1828 2722 1647 2597 
Q 1466 2472 1398 2265 
Q 1331 2059 1331 1503 
L 1331 0 
L 453 0 
L 453 3319 
L 1269 3319 
L 1269 2831 
Q 1703 3394 2363 3394 
Q 2653 3394 2893 3289 
Q 3134 3184 3257 3021 
Q 3381 2859 3429 2653 
Q 3478 2447 3478 2063 
L 3478 0 
z
" id="Arial-BoldMT-6e" transform="scale(0.015625)"/>
     <path d="M 75 3319 
L 563 3319 
L 563 3569 
Q 563 3988 652 4194 
Q 741 4400 980 4529 
Q 1219 4659 1584 4659 
Q 1959 4659 2319 4547 
L 2200 3934 
Q 1991 3984 1797 3984 
Q 1606 3984 1523 3895 
Q 1441 3806 1441 3553 
L 1441 3319 
L 2097 3319 
L 2097 2628 
L 1441 2628 
L 1441 0 
L 563 0 
L 563 2628 
L 75 2628 
L 75 3319 
z
" id="Arial-BoldMT-66" transform="scale(0.015625)"/>
     <path d="M 1981 3319 
L 1981 2619 
L 1381 2619 
L 1381 1281 
Q 1381 875 1398 808 
Q 1416 741 1477 697 
Q 1538 653 1625 653 
Q 1747 653 1978 738 
L 2053 56 
Q 1747 -75 1359 -75 
Q 1122 -75 931 4 
Q 741 84 652 211 
Q 563 338 528 553 
Q 500 706 500 1172 
L 500 2619 
L 97 2619 
L 97 3319 
L 500 3319 
L 500 3978 
L 1381 4491 
L 1381 3319 
L 1981 3319 
z
" id="Arial-BoldMT-74" transform="scale(0.015625)"/>
     <path d="M 1334 4581 
L 1334 2897 
Q 1759 3394 2350 3394 
Q 2653 3394 2897 3281 
Q 3141 3169 3264 2994 
Q 3388 2819 3433 2606 
Q 3478 2394 3478 1947 
L 3478 0 
L 2600 0 
L 2600 1753 
Q 2600 2275 2550 2415 
Q 2500 2556 2373 2639 
Q 2247 2722 2056 2722 
Q 1838 2722 1666 2615 
Q 1494 2509 1414 2295 
Q 1334 2081 1334 1663 
L 1334 0 
L 456 0 
L 456 4581 
L 1334 4581 
z
" id="Arial-BoldMT-68" transform="scale(0.015625)"/>
     <path d="M 2381 1056 
L 3256 909 
Q 3088 428 2723 176 
Q 2359 -75 1813 -75 
Q 947 -75 531 491 
Q 203 944 203 1634 
Q 203 2459 634 2926 
Q 1066 3394 1725 3394 
Q 2466 3394 2894 2905 
Q 3322 2416 3303 1406 
L 1103 1406 
Q 1113 1016 1316 798 
Q 1519 581 1822 581 
Q 2028 581 2168 693 
Q 2309 806 2381 1056 
z
M 2431 1944 
Q 2422 2325 2234 2523 
Q 2047 2722 1778 2722 
Q 1491 2722 1303 2513 
Q 1116 2303 1119 1944 
L 2431 1944 
z
" id="Arial-BoldMT-65" transform="scale(0.015625)"/>
     <path d="M 1372 0 
L 34 3319 
L 956 3319 
L 1581 1625 
L 1763 1059 
Q 1834 1275 1853 1344 
Q 1897 1484 1947 1625 
L 2578 3319 
L 3481 3319 
L 2163 0 
L 1372 0 
z
" id="Arial-BoldMT-76" transform="scale(0.015625)"/>
     <path d="M 459 0 
L 459 4581 
L 1338 4581 
L 1338 0 
L 459 0 
z
" id="Arial-BoldMT-6c" transform="scale(0.015625)"/>
     <path d="M 1078 0 
L 28 3319 
L 881 3319 
L 1503 1144 
L 2075 3319 
L 2922 3319 
L 3475 1144 
L 4109 3319 
L 4975 3319 
L 3909 0 
L 3066 0 
L 2494 2134 
L 1931 0 
L 1078 0 
z
" id="Arial-BoldMT-77" transform="scale(0.015625)"/>
     <path d="M 44 3319 
L 978 3319 
L 1772 963 
L 2547 3319 
L 3456 3319 
L 2284 125 
L 2075 -453 
Q 1959 -744 1854 -897 
Q 1750 -1050 1614 -1145 
Q 1478 -1241 1279 -1294 
Q 1081 -1347 831 -1347 
Q 578 -1347 334 -1294 
L 256 -606 
Q 463 -647 628 -647 
Q 934 -647 1081 -467 
Q 1228 -288 1306 -9 
L 44 3319 
z
" id="Arial-BoldMT-79" transform="scale(0.015625)"/>
    </defs>
    <use xlink:href="#Arial-BoldMT-41"/>
    <use x="68.466797" xlink:href="#Arial-BoldMT-20"/>
    <use x="96.25" xlink:href="#Arial-BoldMT-63"/>
    <use x="151.865234" xlink:href="#Arial-BoldMT-6f"/>
    <use x="212.949219" xlink:href="#Arial-BoldMT-6d"/>
    <use x="301.865234" xlink:href="#Arial-BoldMT-70"/>
    <use x="362.949219" xlink:href="#Arial-BoldMT-61"/>
    <use x="418.564453" xlink:href="#Arial-BoldMT-72"/>
    <use x="457.480469" xlink:href="#Arial-BoldMT-69"/>
    <use x="485.263672" xlink:href="#Arial-BoldMT-73"/>
    <use x="540.878906" xlink:href="#Arial-BoldMT-6f"/>
    <use x="601.962891" xlink:href="#Arial-BoldMT-6e"/>
    <use x="663.046875" xlink:href="#Arial-BoldMT-20"/>
    <use x="690.830078" xlink:href="#Arial-BoldMT-6f"/>
    <use x="751.914062" xlink:href="#Arial-BoldMT-66"/>
    <use x="785.214844" xlink:href="#Arial-BoldMT-20"/>
    <use x="812.998047" xlink:href="#Arial-BoldMT-74"/>
    <use x="846.298828" xlink:href="#Arial-BoldMT-68"/>
    <use x="907.382812" xlink:href="#Arial-BoldMT-65"/>
    <use x="962.998047" xlink:href="#Arial-BoldMT-20"/>
    <use x="990.78125" xlink:href="#Arial-BoldMT-76"/>
    <use x="1046.396484" xlink:href="#Arial-BoldMT-61"/>
    <use x="1102.011719" xlink:href="#Arial-BoldMT-6c"/>
    <use x="1129.794922" xlink:href="#Arial-BoldMT-65"/>
    <use x="1185.410156" xlink:href="#Arial-BoldMT-6e"/>
    <use x="1246.494141" xlink:href="#Arial-BoldMT-63"/>
    <use x="1302.109375" xlink:href="#Arial-BoldMT-65"/>
    <use x="1357.724609" xlink:href="#Arial-BoldMT-20"/>
    <use x="1385.507812" xlink:href="#Arial-BoldMT-6f"/>
    <use x="1446.591797" xlink:href="#Arial-BoldMT-66"/>
    <use x="1479.892578" xlink:href="#Arial-BoldMT-20"/>
    <use x="1507.675781" xlink:href="#Arial-BoldMT-74"/>
    <use x="1540.976562" xlink:href="#Arial-BoldMT-68"/>
    <use x="1602.060547" xlink:href="#Arial-BoldMT-65"/>
    <use x="1657.675781" xlink:href="#Arial-BoldMT-20"/>
    <use x="1685.458984" xlink:href="#Arial-BoldMT-74"/>
    <use x="1718.759766" xlink:href="#Arial-BoldMT-6f"/>
    <use x="1779.84375" xlink:href="#Arial-BoldMT-70"/>
    <use x="1840.927734" xlink:href="#Arial-BoldMT-20"/>
    <use x="1868.710938" xlink:href="#Arial-BoldMT-74"/>
    <use x="1902.011719" xlink:href="#Arial-BoldMT-77"/>
    <use x="1979.794922" xlink:href="#Arial-BoldMT-65"/>
    <use x="2035.410156" xlink:href="#Arial-BoldMT-6e"/>
    <use x="2096.494141" xlink:href="#Arial-BoldMT-74"/>
    <use x="2129.794922" xlink:href="#Arial-BoldMT-79"/>
   </g>
   <!-- modifiers for each comparison group -->
   <g transform="translate(80.4525 43.392)scale(0.16 -0.16)">
    <defs>
     <path d="M 3503 0 
L 2688 0 
L 2688 488 
Q 2484 203 2207 64 
Q 1931 -75 1650 -75 
Q 1078 -75 670 386 
Q 263 847 263 1672 
Q 263 2516 659 2955 
Q 1056 3394 1663 3394 
Q 2219 3394 2625 2931 
L 2625 4581 
L 3503 4581 
L 3503 0 
z
M 1159 1731 
Q 1159 1200 1306 963 
Q 1519 619 1900 619 
Q 2203 619 2415 876 
Q 2628 1134 2628 1647 
Q 2628 2219 2422 2470 
Q 2216 2722 1894 2722 
Q 1581 2722 1370 2473 
Q 1159 2225 1159 1731 
z
" id="Arial-BoldMT-64" transform="scale(0.015625)"/>
     <path d="M 378 -219 
L 1381 -341 
Q 1406 -516 1497 -581 
Q 1622 -675 1891 -675 
Q 2234 -675 2406 -572 
Q 2522 -503 2581 -350 
Q 2622 -241 2622 53 
L 2622 538 
Q 2228 0 1628 0 
Q 959 0 569 566 
Q 263 1013 263 1678 
Q 263 2513 664 2953 
Q 1066 3394 1663 3394 
Q 2278 3394 2678 2853 
L 2678 3319 
L 3500 3319 
L 3500 341 
Q 3500 -247 3403 -537 
Q 3306 -828 3131 -993 
Q 2956 -1159 2664 -1253 
Q 2372 -1347 1925 -1347 
Q 1081 -1347 728 -1058 
Q 375 -769 375 -325 
Q 375 -281 378 -219 
z
M 1163 1728 
Q 1163 1200 1367 954 
Q 1572 709 1872 709 
Q 2194 709 2416 961 
Q 2638 1213 2638 1706 
Q 2638 2222 2425 2472 
Q 2213 2722 1888 2722 
Q 1572 2722 1367 2476 
Q 1163 2231 1163 1728 
z
" id="Arial-BoldMT-67" transform="scale(0.015625)"/>
     <path d="M 2644 0 
L 2644 497 
Q 2463 231 2167 78 
Q 1872 -75 1544 -75 
Q 1209 -75 943 72 
Q 678 219 559 484 
Q 441 750 441 1219 
L 441 3319 
L 1319 3319 
L 1319 1794 
Q 1319 1094 1367 936 
Q 1416 778 1544 686 
Q 1672 594 1869 594 
Q 2094 594 2272 717 
Q 2450 841 2515 1023 
Q 2581 1206 2581 1919 
L 2581 3319 
L 3459 3319 
L 3459 0 
L 2644 0 
z
" id="Arial-BoldMT-75" transform="scale(0.015625)"/>
    </defs>
    <use xlink:href="#Arial-BoldMT-6d"/>
    <use x="88.916016" xlink:href="#Arial-BoldMT-6f"/>
    <use x="150" xlink:href="#Arial-BoldMT-64"/>
    <use x="211.083984" xlink:href="#Arial-BoldMT-69"/>
    <use x="238.867188" xlink:href="#Arial-BoldMT-66"/>
    <use x="272.167969" xlink:href="#Arial-BoldMT-69"/>
    <use x="299.951172" xlink:href="#Arial-BoldMT-65"/>
    <use x="355.566406" xlink:href="#Arial-BoldMT-72"/>
    <use x="394.482422" xlink:href="#Arial-BoldMT-73"/>
    <use x="450.097656" xlink:href="#Arial-BoldMT-20"/>
    <use x="477.880859" xlink:href="#Arial-BoldMT-66"/>
    <use x="511.181641" xlink:href="#Arial-BoldMT-6f"/>
    <use x="572.265625" xlink:href="#Arial-BoldMT-72"/>
    <use x="611.181641" xlink:href="#Arial-BoldMT-20"/>
    <use x="638.964844" xlink:href="#Arial-BoldMT-65"/>
    <use x="694.580078" xlink:href="#Arial-BoldMT-61"/>
    <use x="750.195312" xlink:href="#Arial-BoldMT-63"/>
    <use x="805.810547" xlink:href="#Arial-BoldMT-68"/>
    <use x="866.894531" xlink:href="#Arial-BoldMT-20"/>
    <use x="894.677734" xlink:href="#Arial-BoldMT-63"/>
    <use x="950.292969" xlink:href="#Arial-BoldMT-6f"/>
    <use x="1011.376953" xlink:href="#Arial-BoldMT-6d"/>
    <use x="1100.292969" xlink:href="#Arial-BoldMT-70"/>
    <use x="1161.376953" xlink:href="#Arial-BoldMT-61"/>
    <use x="1216.992188" xlink:href="#Arial-BoldMT-72"/>
    <use x="1255.908203" xlink:href="#Arial-BoldMT-69"/>
    <use x="1283.691406" xlink:href="#Arial-BoldMT-73"/>
    <use x="1339.306641" xlink:href="#Arial-BoldMT-6f"/>
    <use x="1400.390625" xlink:href="#Arial-BoldMT-6e"/>
    <use x="1461.474609" xlink:href="#Arial-BoldMT-20"/>
    <use x="1489.257812" xlink:href="#Arial-BoldMT-67"/>
    <use x="1550.341797" xlink:href="#Arial-BoldMT-72"/>
    <use x="1589.257812" xlink:href="#Arial-BoldMT-6f"/>
    <use x="1650.341797" xlink:href="#Arial-BoldMT-75"/>
    <use x="1711.425781" xlink:href="#Arial-BoldMT-70"/>
   </g>
  </g>
 </g>
 <defs>
  <pattern height="72" id="h7f5440c24b" patternUnits="userSpaceOnUse" width="72" x="0" y="0">
   <rect fill="#125aa1" height="73" width="73" x="0" y="0"/>
   <path d="M -36 36 
L 36 -36 
M -24 48 
L 48 -24 
M -12 60 
L 60 -12 
M 0 72 
L 72 0 
M 12 84 
L 84 12 
M 24 96 
L 96 24 
M 36 108 
L 108 36 
" style="fill:#000000;stroke:#000000;stroke-linecap:butt;stroke-linejoin:miter;stroke-width:1.0;"/>
  </pattern>
  <pattern height="72" id="h91327a1150" patternUnits="userSpaceOnUse" width="72" x="0" y="0">
   <rect fill="#525a61" height="73" width="73" x="0" y="0"/>
   <path d="M 6 72 
L 6 0 
M 18 72 
L 18 0 
M 30 72 
L 30 0 
M 42 72 
L 42 0 
M 54 72 
L 54 0 
M 66 72 
L 66 0 
" style="fill:#000000;stroke:#000000;stroke-linecap:butt;stroke-linejoin:miter;stroke-width:1.0;"/>
  </pattern>
  <pattern height="72" id="h755e31a6cb" patternUnits="userSpaceOnUse" width="72" x="0" y="0">
   <rect fill="#a03912" height="73" width="73" x="0" y="0"/>
   <path d="M -36 36 
L 36 108 
M -24 24 
L 48 96 
M -12 12 
L 60 84 
M 0 0 
L 72 72 
M 12 -12 
L 84 60 
M 24 -24 
L 96 48 
M 36 -36 
L 108 36 
" style="fill:#000000;stroke:#000000;stroke-linecap:butt;stroke-linejoin:miter;stroke-width:1.0;"/>
  </pattern>
 </defs>
</svg>
